<svg width="278" height="285" viewBox="0 0 278 285" fill="none" xmlns="http://www.w3.org/2000/svg">
<path d="M118.483 188.8C119.251 188.8 119.933 188.944 120.531 189.232C121.128 189.52 121.629 189.925 122.035 190.448C122.451 190.96 122.76 191.557 122.963 192.24C123.176 192.912 123.283 193.632 123.283 194.4C123.283 195.435 123.096 196.379 122.723 197.232C122.349 198.075 121.805 198.747 121.091 199.248C120.387 199.749 119.517 200 118.483 200H114.659C114.381 200 114.147 199.909 113.955 199.728C113.773 199.536 113.683 199.301 113.683 199.024V189.776C113.683 189.499 113.773 189.269 113.955 189.088C114.147 188.896 114.381 188.8 114.659 188.8H118.483ZM118.323 198.16C118.995 198.16 119.544 197.989 119.971 197.648C120.397 197.296 120.707 196.837 120.899 196.272C121.101 195.696 121.203 195.072 121.203 194.4C121.203 193.899 121.144 193.424 121.027 192.976C120.92 192.517 120.749 192.117 120.515 191.776C120.28 191.424 119.981 191.147 119.619 190.944C119.256 190.741 118.824 190.64 118.323 190.64H115.523L115.683 190.496V198.336L115.587 198.16H118.323ZM129.277 200.16C128.371 200.16 127.581 199.973 126.909 199.6C126.248 199.216 125.736 198.699 125.373 198.048C125.021 197.397 124.845 196.661 124.845 195.84C124.845 194.88 125.037 194.064 125.421 193.392C125.816 192.709 126.328 192.187 126.957 191.824C127.587 191.461 128.253 191.28 128.957 191.28C129.501 191.28 130.013 191.392 130.493 191.616C130.984 191.84 131.416 192.149 131.789 192.544C132.163 192.928 132.456 193.376 132.669 193.888C132.893 194.4 133.005 194.944 133.005 195.52C132.995 195.776 132.893 195.984 132.701 196.144C132.509 196.304 132.285 196.384 132.029 196.384H125.917L125.437 194.784H131.309L130.957 195.104V194.672C130.936 194.363 130.824 194.085 130.621 193.84C130.429 193.595 130.184 193.403 129.885 193.264C129.597 193.115 129.288 193.04 128.957 193.04C128.637 193.04 128.339 193.083 128.061 193.168C127.784 193.253 127.544 193.397 127.341 193.6C127.139 193.803 126.979 194.075 126.861 194.416C126.744 194.757 126.685 195.189 126.685 195.712C126.685 196.288 126.803 196.779 127.037 197.184C127.283 197.579 127.592 197.883 127.965 198.096C128.349 198.299 128.755 198.4 129.181 198.4C129.576 198.4 129.891 198.368 130.125 198.304C130.36 198.24 130.547 198.165 130.685 198.08C130.835 197.984 130.968 197.904 131.085 197.84C131.277 197.744 131.459 197.696 131.629 197.696C131.864 197.696 132.056 197.776 132.205 197.936C132.365 198.096 132.445 198.283 132.445 198.496C132.445 198.784 132.296 199.045 131.997 199.28C131.72 199.515 131.331 199.723 130.829 199.904C130.328 200.075 129.811 200.16 129.277 200.16ZM134.347 198.672C134.24 198.523 134.192 198.331 134.203 198.096C134.213 197.861 134.352 197.659 134.619 197.488C134.789 197.381 134.971 197.339 135.163 197.36C135.355 197.371 135.541 197.467 135.723 197.648C136.032 197.957 136.357 198.197 136.699 198.368C137.04 198.539 137.467 198.624 137.979 198.624C138.139 198.613 138.315 198.592 138.507 198.56C138.699 198.517 138.864 198.432 139.003 198.304C139.152 198.165 139.227 197.957 139.227 197.68C139.227 197.445 139.147 197.259 138.987 197.12C138.827 196.981 138.613 196.864 138.347 196.768C138.091 196.672 137.803 196.581 137.483 196.496C137.152 196.4 136.811 196.293 136.459 196.176C136.117 196.059 135.803 195.909 135.515 195.728C135.227 195.536 134.992 195.285 134.811 194.976C134.629 194.667 134.539 194.277 134.539 193.808C134.539 193.275 134.688 192.821 134.987 192.448C135.285 192.075 135.669 191.787 136.139 191.584C136.619 191.381 137.12 191.28 137.643 191.28C137.973 191.28 138.32 191.323 138.683 191.408C139.045 191.483 139.392 191.611 139.723 191.792C140.053 191.963 140.331 192.192 140.555 192.48C140.672 192.64 140.741 192.832 140.763 193.056C140.784 193.28 140.683 193.483 140.459 193.664C140.299 193.792 140.112 193.851 139.899 193.84C139.685 193.819 139.509 193.744 139.371 193.616C139.189 193.381 138.944 193.195 138.635 193.056C138.336 192.917 137.989 192.848 137.595 192.848C137.435 192.848 137.259 192.869 137.067 192.912C136.885 192.944 136.725 193.024 136.587 193.152C136.448 193.269 136.379 193.461 136.379 193.728C136.379 193.973 136.459 194.171 136.619 194.32C136.779 194.459 136.992 194.576 137.259 194.672C137.536 194.757 137.829 194.843 138.139 194.928C138.459 195.013 138.784 195.115 139.115 195.232C139.445 195.349 139.749 195.504 140.027 195.696C140.304 195.888 140.528 196.139 140.699 196.448C140.869 196.747 140.955 197.131 140.955 197.6C140.955 198.144 140.795 198.608 140.475 198.992C140.155 199.376 139.755 199.669 139.275 199.872C138.795 200.064 138.304 200.16 137.803 200.16C137.173 200.16 136.544 200.053 135.915 199.84C135.285 199.616 134.763 199.227 134.347 198.672ZM144.53 199.024C144.53 199.301 144.439 199.536 144.258 199.728C144.076 199.909 143.847 200 143.57 200C143.292 200 143.063 199.909 142.882 199.728C142.7 199.536 142.61 199.301 142.61 199.024V192.416C142.61 192.139 142.7 191.909 142.882 191.728C143.063 191.536 143.292 191.44 143.57 191.44C143.847 191.44 144.076 191.536 144.258 191.728C144.439 191.909 144.53 192.139 144.53 192.416V199.024ZM143.554 190.4C143.191 190.4 142.935 190.341 142.786 190.224C142.636 190.107 142.562 189.899 142.562 189.6V189.296C142.562 188.987 142.642 188.779 142.802 188.672C142.972 188.555 143.228 188.496 143.57 188.496C143.943 188.496 144.204 188.555 144.354 188.672C144.503 188.789 144.578 188.997 144.578 189.296V189.6C144.578 189.909 144.498 190.123 144.338 190.24C144.178 190.347 143.916 190.4 143.554 190.4ZM150.215 191.28C150.663 191.28 151.073 191.349 151.447 191.488C151.82 191.627 152.14 191.803 152.407 192.016C152.684 192.229 152.897 192.448 153.047 192.672C153.207 192.885 153.287 193.067 153.287 193.216L152.871 193.424V192.256C152.871 191.979 152.961 191.749 153.143 191.568C153.324 191.376 153.553 191.28 153.831 191.28C154.108 191.28 154.337 191.371 154.519 191.552C154.7 191.733 154.791 191.968 154.791 192.256V199.376C154.791 200.304 154.588 201.045 154.183 201.6C153.788 202.165 153.265 202.571 152.615 202.816C151.964 203.072 151.265 203.2 150.519 203.2C150.305 203.2 150.028 203.173 149.687 203.12C149.345 203.067 149.02 203.003 148.711 202.928C148.401 202.853 148.167 202.784 148.007 202.72C147.687 202.581 147.463 202.405 147.335 202.192C147.217 201.989 147.196 201.771 147.271 201.536C147.367 201.227 147.521 201.013 147.735 200.896C147.948 200.789 148.172 200.779 148.407 200.864C148.513 200.896 148.689 200.96 148.935 201.056C149.18 201.152 149.447 201.237 149.735 201.312C150.033 201.397 150.295 201.44 150.519 201.44C151.319 201.44 151.911 201.28 152.295 200.96C152.679 200.64 152.871 200.197 152.871 199.632V198.24L153.063 198.384C153.063 198.523 152.988 198.693 152.839 198.896C152.7 199.088 152.503 199.28 152.247 199.472C152.001 199.664 151.708 199.829 151.367 199.968C151.025 200.096 150.663 200.16 150.279 200.16C149.521 200.16 148.839 199.973 148.231 199.6C147.623 199.216 147.143 198.693 146.791 198.032C146.439 197.36 146.263 196.592 146.263 195.728C146.263 194.853 146.439 194.085 146.791 193.424C147.143 192.752 147.617 192.229 148.215 191.856C148.812 191.472 149.479 191.28 150.215 191.28ZM150.519 193.04C150.039 193.04 149.617 193.157 149.255 193.392C148.892 193.627 148.609 193.947 148.407 194.352C148.204 194.757 148.103 195.216 148.103 195.728C148.103 196.229 148.204 196.683 148.407 197.088C148.609 197.493 148.892 197.813 149.255 198.048C149.617 198.283 150.039 198.4 150.519 198.4C151.009 198.4 151.436 198.283 151.799 198.048C152.161 197.813 152.444 197.493 152.647 197.088C152.849 196.683 152.951 196.229 152.951 195.728C152.951 195.216 152.849 194.757 152.647 194.352C152.444 193.947 152.161 193.627 151.799 193.392C151.436 193.157 151.009 193.04 150.519 193.04ZM161.602 191.28C162.391 191.28 162.989 191.445 163.394 191.776C163.81 192.107 164.093 192.549 164.242 193.104C164.402 193.648 164.482 194.256 164.482 194.928V199.024C164.482 199.301 164.391 199.536 164.21 199.728C164.029 199.909 163.799 200 163.522 200C163.245 200 163.015 199.909 162.834 199.728C162.653 199.536 162.562 199.301 162.562 199.024V194.928C162.562 194.576 162.514 194.261 162.418 193.984C162.333 193.696 162.173 193.467 161.938 193.296C161.703 193.125 161.367 193.04 160.93 193.04C160.503 193.04 160.141 193.125 159.842 193.296C159.554 193.467 159.33 193.696 159.17 193.984C159.021 194.261 158.946 194.576 158.946 194.928V199.024C158.946 199.301 158.855 199.536 158.674 199.728C158.493 199.909 158.263 200 157.986 200C157.709 200 157.479 199.909 157.298 199.728C157.117 199.536 157.026 199.301 157.026 199.024V192.416C157.026 192.139 157.117 191.909 157.298 191.728C157.479 191.536 157.709 191.44 157.986 191.44C158.263 191.44 158.493 191.536 158.674 191.728C158.855 191.909 158.946 192.139 158.946 192.416V193.104L158.706 193.056C158.802 192.875 158.941 192.683 159.122 192.48C159.303 192.267 159.517 192.069 159.762 191.888C160.007 191.707 160.285 191.563 160.594 191.456C160.903 191.339 161.239 191.28 161.602 191.28Z" fill="#E2E2E2"/>
<circle cx="139" cy="105" r="50" fill="#8EEA77"/>
<path d="M139 117.25L151.25 105L156.5 110.25L144.25 122.5L139 117.25Z" stroke="#0B0F15" stroke-width="3" stroke-linecap="round" stroke-linejoin="round"/>
<path d="M149.5 106.75L146.875 93.625L121.5 87.5L127.625 112.875L140.75 115.5L149.5 106.75Z" stroke="#0B0F15" stroke-width="3" stroke-linecap="round" stroke-linejoin="round"/>
<path d="M121.5 87.5L134.776 100.776" stroke="#0B0F15" stroke-width="3" stroke-linecap="round" stroke-linejoin="round"/>
<path d="M137.25 106.75C139.183 106.75 140.75 105.183 140.75 103.25C140.75 101.317 139.183 99.75 137.25 99.75C135.317 99.75 133.75 101.317 133.75 103.25C133.75 105.183 135.317 106.75 137.25 106.75Z" stroke="#0B0F15" stroke-width="3" stroke-linecap="round" stroke-linejoin="round"/>
<g filter="url(#filter0_d_1_1574)">
<rect x="8.5" y="3.5" width="261" height="268" rx="29.5" stroke="white" stroke-opacity="0.1" shape-rendering="crispEdges"/>
</g>
<defs>
<filter id="filter0_d_1_1574" x="0" y="0" width="278" height="285" filterUnits="userSpaceOnUse" color-interpolation-filters="sRGB">
<feFlood flood-opacity="0" result="BackgroundImageFix"/>
<feColorMatrix in="SourceAlpha" type="matrix" values="0 0 0 0 0 0 0 0 0 0 0 0 0 0 0 0 0 0 127 0" result="hardAlpha"/>
<feOffset dy="5"/>
<feGaussianBlur stdDeviation="4"/>
<feComposite in2="hardAlpha" operator="out"/>
<feColorMatrix type="matrix" values="0 0 0 0 0 0 0 0 0 0 0 0 0 0 0 0 0 0 0.25 0"/>
<feBlend mode="normal" in2="BackgroundImageFix" result="effect1_dropShadow_1_1574"/>
<feBlend mode="normal" in="SourceGraphic" in2="effect1_dropShadow_1_1574" result="shape"/>
</filter>
</defs>
</svg>
