<svg width="262" height="269" viewBox="0 0 262 269" fill="none" xmlns="http://www.w3.org/2000/svg">
<path d="M80.0978 180.16C79.3511 180.16 78.6791 180.069 78.0818 179.888C77.4845 179.696 76.9138 179.365 76.3698 178.896C76.2311 178.779 76.1245 178.645 76.0498 178.496C75.9751 178.347 75.9378 178.197 75.9378 178.048C75.9378 177.803 76.0231 177.589 76.1938 177.408C76.3751 177.216 76.5991 177.12 76.8658 177.12C77.0685 177.12 77.2498 177.184 77.4098 177.312C77.8151 177.643 78.2151 177.893 78.6098 178.064C79.0151 178.235 79.5111 178.32 80.0978 178.32C80.4925 178.32 80.8551 178.261 81.1858 178.144C81.5165 178.016 81.7831 177.851 81.9858 177.648C82.1885 177.435 82.2898 177.195 82.2898 176.928C82.2898 176.608 82.1938 176.336 82.0018 176.112C81.8098 175.888 81.5165 175.701 81.1218 175.552C80.7271 175.392 80.2258 175.269 79.6178 175.184C79.0418 175.099 78.5351 174.971 78.0978 174.8C77.6605 174.619 77.2925 174.395 76.9938 174.128C76.7058 173.851 76.4871 173.531 76.3378 173.168C76.1885 172.795 76.1138 172.379 76.1138 171.92C76.1138 171.227 76.2898 170.635 76.6418 170.144C77.0045 169.653 77.4898 169.28 78.0978 169.024C78.7058 168.768 79.3778 168.64 80.1138 168.64C80.8071 168.64 81.4471 168.747 82.0338 168.96C82.6311 169.163 83.1165 169.424 83.4898 169.744C83.7991 169.989 83.9538 170.272 83.9538 170.592C83.9538 170.827 83.8631 171.04 83.6818 171.232C83.5005 171.424 83.2871 171.52 83.0418 171.52C82.8818 171.52 82.7378 171.472 82.6098 171.376C82.4391 171.227 82.2098 171.088 81.9218 170.96C81.6338 170.821 81.3298 170.709 81.0098 170.624C80.6898 170.528 80.3911 170.48 80.1138 170.48C79.6551 170.48 79.2658 170.539 78.9458 170.656C78.6365 170.773 78.4018 170.933 78.2418 171.136C78.0818 171.339 78.0018 171.573 78.0018 171.84C78.0018 172.16 78.0925 172.427 78.2738 172.64C78.4658 172.843 78.7378 173.008 79.0898 173.136C79.4418 173.253 79.8631 173.36 80.3538 173.456C80.9938 173.573 81.5538 173.712 82.0338 173.872C82.5245 174.032 82.9298 174.24 83.2498 174.496C83.5698 174.741 83.8098 175.056 83.9698 175.44C84.1298 175.813 84.2098 176.272 84.2098 176.816C84.2098 177.509 84.0178 178.107 83.6338 178.608C83.2498 179.109 82.7431 179.493 82.1138 179.76C81.4951 180.027 80.8231 180.16 80.0978 180.16ZM90.0767 180.16C89.17 180.16 88.3807 179.973 87.7087 179.6C87.0474 179.216 86.5354 178.699 86.1727 178.048C85.8207 177.397 85.6447 176.661 85.6447 175.84C85.6447 174.88 85.8367 174.064 86.2207 173.392C86.6154 172.709 87.1274 172.187 87.7567 171.824C88.386 171.461 89.0527 171.28 89.7567 171.28C90.3007 171.28 90.8127 171.392 91.2927 171.616C91.7834 171.84 92.2154 172.149 92.5887 172.544C92.962 172.928 93.2554 173.376 93.4687 173.888C93.6927 174.4 93.8047 174.944 93.8047 175.52C93.794 175.776 93.6927 175.984 93.5007 176.144C93.3087 176.304 93.0847 176.384 92.8287 176.384H86.7167L86.2367 174.784H92.1087L91.7567 175.104V174.672C91.7354 174.363 91.6234 174.085 91.4207 173.84C91.2287 173.595 90.9834 173.403 90.6847 173.264C90.3967 173.115 90.0874 173.04 89.7567 173.04C89.4367 173.04 89.138 173.083 88.8607 173.168C88.5834 173.253 88.3434 173.397 88.1407 173.6C87.938 173.803 87.778 174.075 87.6607 174.416C87.5434 174.757 87.4847 175.189 87.4847 175.712C87.4847 176.288 87.602 176.779 87.8367 177.184C88.082 177.579 88.3914 177.883 88.7647 178.096C89.1487 178.299 89.554 178.4 89.9807 178.4C90.3754 178.4 90.69 178.368 90.9247 178.304C91.1594 178.24 91.346 178.165 91.4847 178.08C91.634 177.984 91.7674 177.904 91.8847 177.84C92.0767 177.744 92.258 177.696 92.4287 177.696C92.6634 177.696 92.8554 177.776 93.0047 177.936C93.1647 178.096 93.2447 178.283 93.2447 178.496C93.2447 178.784 93.0954 179.045 92.7967 179.28C92.5194 179.515 92.13 179.723 91.6287 179.904C91.1274 180.075 90.61 180.16 90.0767 180.16ZM102.713 171.28C102.99 171.28 103.219 171.371 103.401 171.552C103.582 171.733 103.673 171.968 103.673 172.256V179.024C103.673 179.301 103.582 179.536 103.401 179.728C103.219 179.909 102.99 180 102.713 180C102.435 180 102.206 179.909 102.025 179.728C101.843 179.536 101.753 179.301 101.753 179.024V178.24L102.105 178.384C102.105 178.523 102.03 178.693 101.881 178.896C101.731 179.088 101.529 179.28 101.273 179.472C101.017 179.664 100.713 179.829 100.361 179.968C100.019 180.096 99.646 180.16 99.2407 180.16C98.5047 180.16 97.838 179.973 97.2407 179.6C96.6434 179.216 96.1687 178.693 95.8167 178.032C95.4754 177.36 95.3047 176.592 95.3047 175.728C95.3047 174.853 95.4754 174.085 95.8167 173.424C96.1687 172.752 96.638 172.229 97.2247 171.856C97.8114 171.472 98.462 171.28 99.1767 171.28C99.6354 171.28 100.057 171.349 100.441 171.488C100.825 171.627 101.155 171.803 101.433 172.016C101.721 172.229 101.939 172.448 102.089 172.672C102.249 172.885 102.329 173.067 102.329 173.216L101.753 173.424V172.256C101.753 171.979 101.843 171.749 102.025 171.568C102.206 171.376 102.435 171.28 102.713 171.28ZM99.4807 178.4C99.95 178.4 100.361 178.283 100.713 178.048C101.065 177.813 101.337 177.493 101.529 177.088C101.731 176.683 101.833 176.229 101.833 175.728C101.833 175.216 101.731 174.757 101.529 174.352C101.337 173.947 101.065 173.627 100.713 173.392C100.361 173.157 99.95 173.04 99.4807 173.04C99.022 173.04 98.6167 173.157 98.2647 173.392C97.9127 173.627 97.6354 173.947 97.4327 174.352C97.2407 174.757 97.1447 175.216 97.1447 175.728C97.1447 176.229 97.2407 176.683 97.4327 177.088C97.6354 177.493 97.9127 177.813 98.2647 178.048C98.6167 178.283 99.022 178.4 99.4807 178.4ZM106.872 180C106.594 180 106.365 179.909 106.184 179.728C106.002 179.536 105.912 179.301 105.912 179.024V172.416C105.912 172.139 106.002 171.909 106.184 171.728C106.365 171.536 106.594 171.44 106.872 171.44C107.149 171.44 107.378 171.536 107.56 171.728C107.741 171.909 107.832 172.139 107.832 172.416V173.92L107.72 172.848C107.837 172.592 107.986 172.368 108.168 172.176C108.36 171.973 108.573 171.808 108.808 171.68C109.042 171.541 109.293 171.44 109.56 171.376C109.826 171.312 110.093 171.28 110.36 171.28C110.68 171.28 110.946 171.371 111.16 171.552C111.384 171.733 111.496 171.947 111.496 172.192C111.496 172.544 111.405 172.8 111.224 172.96C111.042 173.109 110.845 173.184 110.632 173.184C110.429 173.184 110.242 173.147 110.072 173.072C109.912 172.997 109.725 172.96 109.512 172.96C109.32 172.96 109.122 173.008 108.92 173.104C108.728 173.189 108.546 173.328 108.376 173.52C108.216 173.712 108.082 173.952 107.976 174.24C107.88 174.517 107.832 174.848 107.832 175.232V179.024C107.832 179.301 107.741 179.536 107.56 179.728C107.378 179.909 107.149 180 106.872 180ZM116.458 171.28C117.066 171.28 117.594 171.344 118.042 171.472C118.5 171.6 118.852 171.781 119.098 172.016C119.354 172.24 119.482 172.512 119.482 172.832C119.482 173.045 119.418 173.248 119.29 173.44C119.162 173.621 118.975 173.712 118.73 173.712C118.559 173.712 118.415 173.691 118.298 173.648C118.191 173.595 118.095 173.531 118.01 173.456C117.924 173.381 117.823 173.312 117.706 173.248C117.599 173.184 117.434 173.136 117.21 173.104C116.996 173.061 116.836 173.04 116.73 173.04C116.186 173.04 115.722 173.157 115.338 173.392C114.964 173.627 114.676 173.947 114.474 174.352C114.271 174.747 114.17 175.205 114.17 175.728C114.17 176.24 114.271 176.699 114.474 177.104C114.687 177.499 114.975 177.813 115.338 178.048C115.711 178.283 116.138 178.4 116.618 178.4C116.884 178.4 117.114 178.384 117.306 178.352C117.498 178.32 117.658 178.272 117.786 178.208C117.935 178.123 118.068 178.032 118.186 177.936C118.303 177.84 118.479 177.792 118.714 177.792C118.991 177.792 119.204 177.883 119.354 178.064C119.503 178.235 119.578 178.448 119.578 178.704C119.578 178.971 119.428 179.216 119.13 179.44C118.831 179.653 118.436 179.829 117.946 179.968C117.466 180.096 116.943 180.16 116.378 180.16C115.535 180.16 114.804 179.968 114.186 179.584C113.567 179.189 113.087 178.656 112.746 177.984C112.415 177.312 112.25 176.56 112.25 175.728C112.25 174.853 112.426 174.085 112.778 173.424C113.14 172.752 113.636 172.229 114.266 171.856C114.906 171.472 115.636 171.28 116.458 171.28ZM125.618 171.28C126.386 171.28 126.968 171.445 127.362 171.776C127.768 172.107 128.045 172.549 128.194 173.104C128.344 173.648 128.418 174.256 128.418 174.928V179.024C128.418 179.301 128.328 179.536 128.146 179.728C127.965 179.909 127.736 180 127.458 180C127.181 180 126.952 179.909 126.77 179.728C126.589 179.536 126.498 179.301 126.498 179.024V174.928C126.498 174.576 126.456 174.261 126.37 173.984C126.285 173.696 126.13 173.467 125.906 173.296C125.682 173.125 125.362 173.04 124.946 173.04C124.541 173.04 124.194 173.125 123.906 173.296C123.618 173.467 123.4 173.696 123.25 173.984C123.112 174.261 123.042 174.576 123.042 174.928V179.024C123.042 179.301 122.952 179.536 122.77 179.728C122.589 179.909 122.36 180 122.082 180C121.805 180 121.576 179.909 121.394 179.728C121.213 179.536 121.122 179.301 121.122 179.024V169.136C121.122 168.859 121.213 168.629 121.394 168.448C121.576 168.256 121.805 168.16 122.082 168.16C122.36 168.16 122.589 168.256 122.77 168.448C122.952 168.629 123.042 168.859 123.042 169.136V173.104L122.802 173.056C122.898 172.875 123.032 172.683 123.202 172.48C123.373 172.267 123.581 172.069 123.826 171.888C124.072 171.707 124.344 171.563 124.642 171.456C124.941 171.339 125.266 171.28 125.618 171.28ZM136.438 168.8H141.798C142.075 168.8 142.304 168.891 142.486 169.072C142.678 169.243 142.774 169.467 142.774 169.744C142.774 170.011 142.678 170.229 142.486 170.4C142.304 170.56 142.075 170.64 141.798 170.64H137.318L137.462 170.368V173.488L137.334 173.36H141.078C141.355 173.36 141.584 173.451 141.766 173.632C141.958 173.803 142.054 174.027 142.054 174.304C142.054 174.571 141.958 174.789 141.766 174.96C141.584 175.12 141.355 175.2 141.078 175.2H137.382L137.462 175.072V178.304L137.334 178.16H141.798C142.075 178.16 142.304 178.256 142.486 178.448C142.678 178.629 142.774 178.843 142.774 179.088C142.774 179.355 142.678 179.573 142.486 179.744C142.304 179.915 142.075 180 141.798 180H136.438C136.16 180 135.926 179.909 135.734 179.728C135.552 179.536 135.462 179.301 135.462 179.024V169.776C135.462 169.499 135.552 169.269 135.734 169.088C135.926 168.896 136.16 168.8 136.438 168.8ZM149.194 171.28C149.983 171.28 150.58 171.445 150.986 171.776C151.402 172.107 151.684 172.549 151.834 173.104C151.994 173.648 152.074 174.256 152.074 174.928V179.024C152.074 179.301 151.983 179.536 151.802 179.728C151.62 179.909 151.391 180 151.114 180C150.836 180 150.607 179.909 150.426 179.728C150.244 179.536 150.154 179.301 150.154 179.024V174.928C150.154 174.576 150.106 174.261 150.01 173.984C149.924 173.696 149.764 173.467 149.53 173.296C149.295 173.125 148.959 173.04 148.522 173.04C148.095 173.04 147.732 173.125 147.434 173.296C147.146 173.467 146.922 173.696 146.762 173.984C146.612 174.261 146.538 174.576 146.538 174.928V179.024C146.538 179.301 146.447 179.536 146.266 179.728C146.084 179.909 145.855 180 145.578 180C145.3 180 145.071 179.909 144.89 179.728C144.708 179.536 144.618 179.301 144.618 179.024V172.416C144.618 172.139 144.708 171.909 144.89 171.728C145.071 171.536 145.3 171.44 145.578 171.44C145.855 171.44 146.084 171.536 146.266 171.728C146.447 171.909 146.538 172.139 146.538 172.416V173.104L146.298 173.056C146.394 172.875 146.532 172.683 146.714 172.48C146.895 172.267 147.108 172.069 147.354 171.888C147.599 171.707 147.876 171.563 148.186 171.456C148.495 171.339 148.831 171.28 149.194 171.28ZM157.861 171.28C158.309 171.28 158.72 171.349 159.093 171.488C159.466 171.627 159.786 171.803 160.053 172.016C160.33 172.229 160.544 172.448 160.693 172.672C160.853 172.885 160.933 173.067 160.933 173.216L160.517 173.424V172.256C160.517 171.979 160.608 171.749 160.789 171.568C160.97 171.376 161.2 171.28 161.477 171.28C161.754 171.28 161.984 171.371 162.165 171.552C162.346 171.733 162.437 171.968 162.437 172.256V179.376C162.437 180.304 162.234 181.045 161.829 181.6C161.434 182.165 160.912 182.571 160.261 182.816C159.61 183.072 158.912 183.2 158.165 183.2C157.952 183.2 157.674 183.173 157.333 183.12C156.992 183.067 156.666 183.003 156.357 182.928C156.048 182.853 155.813 182.784 155.653 182.72C155.333 182.581 155.109 182.405 154.981 182.192C154.864 181.989 154.842 181.771 154.917 181.536C155.013 181.227 155.168 181.013 155.381 180.896C155.594 180.789 155.818 180.779 156.053 180.864C156.16 180.896 156.336 180.96 156.581 181.056C156.826 181.152 157.093 181.237 157.381 181.312C157.68 181.397 157.941 181.44 158.165 181.44C158.965 181.44 159.557 181.28 159.941 180.96C160.325 180.64 160.517 180.197 160.517 179.632V178.24L160.709 178.384C160.709 178.523 160.634 178.693 160.485 178.896C160.346 179.088 160.149 179.28 159.893 179.472C159.648 179.664 159.354 179.829 159.013 179.968C158.672 180.096 158.309 180.16 157.925 180.16C157.168 180.16 156.485 179.973 155.877 179.6C155.269 179.216 154.789 178.693 154.437 178.032C154.085 177.36 153.909 176.592 153.909 175.728C153.909 174.853 154.085 174.085 154.437 173.424C154.789 172.752 155.264 172.229 155.861 171.856C156.458 171.472 157.125 171.28 157.861 171.28ZM158.165 173.04C157.685 173.04 157.264 173.157 156.901 173.392C156.538 173.627 156.256 173.947 156.053 174.352C155.85 174.757 155.749 175.216 155.749 175.728C155.749 176.229 155.85 176.683 156.053 177.088C156.256 177.493 156.538 177.813 156.901 178.048C157.264 178.283 157.685 178.4 158.165 178.4C158.656 178.4 159.082 178.283 159.445 178.048C159.808 177.813 160.09 177.493 160.293 177.088C160.496 176.683 160.597 176.229 160.597 175.728C160.597 175.216 160.496 174.757 160.293 174.352C160.09 173.947 159.808 173.627 159.445 173.392C159.082 173.157 158.656 173.04 158.165 173.04ZM166.48 179.024C166.48 179.301 166.39 179.536 166.208 179.728C166.027 179.909 165.798 180 165.52 180C165.243 180 165.014 179.909 164.832 179.728C164.651 179.536 164.56 179.301 164.56 179.024V172.416C164.56 172.139 164.651 171.909 164.832 171.728C165.014 171.536 165.243 171.44 165.52 171.44C165.798 171.44 166.027 171.536 166.208 171.728C166.39 171.909 166.48 172.139 166.48 172.416V179.024ZM165.504 170.4C165.142 170.4 164.886 170.341 164.736 170.224C164.587 170.107 164.512 169.899 164.512 169.6V169.296C164.512 168.987 164.592 168.779 164.752 168.672C164.923 168.555 165.179 168.496 165.52 168.496C165.894 168.496 166.155 168.555 166.304 168.672C166.454 168.789 166.528 168.997 166.528 169.296V169.6C166.528 169.909 166.448 170.123 166.288 170.24C166.128 170.347 165.867 170.4 165.504 170.4ZM173.189 171.28C173.979 171.28 174.576 171.445 174.981 171.776C175.397 172.107 175.68 172.549 175.829 173.104C175.989 173.648 176.069 174.256 176.069 174.928V179.024C176.069 179.301 175.979 179.536 175.797 179.728C175.616 179.909 175.387 180 175.109 180C174.832 180 174.603 179.909 174.421 179.728C174.24 179.536 174.149 179.301 174.149 179.024V174.928C174.149 174.576 174.101 174.261 174.005 173.984C173.92 173.696 173.76 173.467 173.525 173.296C173.291 173.125 172.955 173.04 172.517 173.04C172.091 173.04 171.728 173.125 171.429 173.296C171.141 173.467 170.917 173.696 170.757 173.984C170.608 174.261 170.533 174.576 170.533 174.928V179.024C170.533 179.301 170.443 179.536 170.261 179.728C170.08 179.909 169.851 180 169.573 180C169.296 180 169.067 179.909 168.885 179.728C168.704 179.536 168.613 179.301 168.613 179.024V172.416C168.613 172.139 168.704 171.909 168.885 171.728C169.067 171.536 169.296 171.44 169.573 171.44C169.851 171.44 170.08 171.536 170.261 171.728C170.443 171.909 170.533 172.139 170.533 172.416V173.104L170.293 173.056C170.389 172.875 170.528 172.683 170.709 172.48C170.891 172.267 171.104 172.069 171.349 171.888C171.595 171.707 171.872 171.563 172.181 171.456C172.491 171.339 172.827 171.28 173.189 171.28ZM182.337 180.16C181.43 180.16 180.641 179.973 179.969 179.6C179.307 179.216 178.795 178.699 178.433 178.048C178.081 177.397 177.905 176.661 177.905 175.84C177.905 174.88 178.097 174.064 178.481 173.392C178.875 172.709 179.387 172.187 180.017 171.824C180.646 171.461 181.313 171.28 182.017 171.28C182.561 171.28 183.073 171.392 183.553 171.616C184.043 171.84 184.475 172.149 184.849 172.544C185.222 172.928 185.515 173.376 185.729 173.888C185.953 174.4 186.065 174.944 186.065 175.52C186.054 175.776 185.953 175.984 185.761 176.144C185.569 176.304 185.345 176.384 185.089 176.384H178.977L178.497 174.784H184.369L184.017 175.104V174.672C183.995 174.363 183.883 174.085 183.681 173.84C183.489 173.595 183.243 173.403 182.945 173.264C182.657 173.115 182.347 173.04 182.017 173.04C181.697 173.04 181.398 173.083 181.121 173.168C180.843 173.253 180.603 173.397 180.401 173.6C180.198 173.803 180.038 174.075 179.921 174.416C179.803 174.757 179.745 175.189 179.745 175.712C179.745 176.288 179.862 176.779 180.097 177.184C180.342 177.579 180.651 177.883 181.025 178.096C181.409 178.299 181.814 178.4 182.241 178.4C182.635 178.4 182.95 178.368 183.185 178.304C183.419 178.24 183.606 178.165 183.745 178.08C183.894 177.984 184.027 177.904 184.145 177.84C184.337 177.744 184.518 177.696 184.689 177.696C184.923 177.696 185.115 177.776 185.265 177.936C185.425 178.096 185.505 178.283 185.505 178.496C185.505 178.784 185.355 179.045 185.057 179.28C184.779 179.515 184.39 179.723 183.889 179.904C183.387 180.075 182.87 180.16 182.337 180.16ZM95.6337 198.4C95.6337 199.2 95.5004 199.947 95.2337 200.64C94.967 201.333 94.5884 201.947 94.0977 202.48C93.6177 203.003 93.0417 203.413 92.3697 203.712C91.7084 204.011 90.983 204.16 90.1937 204.16C89.4044 204.16 88.679 204.011 88.0177 203.712C87.3564 203.413 86.7804 203.003 86.2897 202.48C85.8097 201.947 85.4364 201.333 85.1697 200.64C84.903 199.947 84.7697 199.2 84.7697 198.4C84.7697 197.6 84.903 196.853 85.1697 196.16C85.4364 195.467 85.8097 194.859 86.2897 194.336C86.7804 193.803 87.3564 193.387 88.0177 193.088C88.679 192.789 89.4044 192.64 90.1937 192.64C90.983 192.64 91.7084 192.789 92.3697 193.088C93.0417 193.387 93.6177 193.803 94.0977 194.336C94.5884 194.859 94.967 195.467 95.2337 196.16C95.5004 196.853 95.6337 197.6 95.6337 198.4ZM93.5537 198.4C93.5537 197.685 93.4097 197.04 93.1217 196.464C92.8337 195.877 92.439 195.413 91.9377 195.072C91.4364 194.731 90.855 194.56 90.1937 194.56C89.5324 194.56 88.951 194.731 88.4497 195.072C87.9484 195.413 87.5537 195.872 87.2657 196.448C86.9884 197.024 86.8497 197.675 86.8497 198.4C86.8497 199.115 86.9884 199.765 87.2657 200.352C87.5537 200.928 87.9484 201.387 88.4497 201.728C88.951 202.069 89.5324 202.24 90.1937 202.24C90.855 202.24 91.4364 202.069 91.9377 201.728C92.439 201.387 92.8337 200.928 93.1217 200.352C93.4097 199.765 93.5537 199.115 93.5537 198.4ZM101.902 195.28C102.649 195.28 103.316 195.472 103.902 195.856C104.5 196.229 104.969 196.747 105.31 197.408C105.662 198.069 105.838 198.837 105.838 199.712C105.838 200.587 105.662 201.36 105.31 202.032C104.969 202.693 104.505 203.216 103.918 203.6C103.342 203.973 102.692 204.16 101.966 204.16C101.54 204.16 101.14 204.091 100.766 203.952C100.393 203.813 100.062 203.637 99.7743 203.424C99.497 203.211 99.2783 202.997 99.1183 202.784C98.969 202.56 98.8943 202.373 98.8943 202.224L99.3903 202.016V206.224C99.3903 206.501 99.2996 206.731 99.1183 206.912C98.937 207.104 98.7076 207.2 98.4303 207.2C98.153 207.2 97.9236 207.109 97.7423 206.928C97.561 206.747 97.4703 206.512 97.4703 206.224V196.416C97.4703 196.139 97.561 195.909 97.7423 195.728C97.9236 195.536 98.153 195.44 98.4303 195.44C98.7076 195.44 98.937 195.536 99.1183 195.728C99.2996 195.909 99.3903 196.139 99.3903 196.416V197.2L99.1183 197.056C99.1183 196.917 99.193 196.752 99.3423 196.56C99.4916 196.357 99.6943 196.16 99.9503 195.968C100.206 195.765 100.5 195.6 100.83 195.472C101.172 195.344 101.529 195.28 101.902 195.28ZM101.662 197.04C101.193 197.04 100.782 197.157 100.43 197.392C100.078 197.627 99.801 197.947 99.5983 198.352C99.4063 198.747 99.3103 199.2 99.3103 199.712C99.3103 200.213 99.4063 200.672 99.5983 201.088C99.801 201.493 100.078 201.813 100.43 202.048C100.782 202.283 101.193 202.4 101.662 202.4C102.132 202.4 102.537 202.283 102.878 202.048C103.23 201.813 103.502 201.493 103.694 201.088C103.897 200.672 103.998 200.213 103.998 199.712C103.998 199.2 103.897 198.747 103.694 198.352C103.502 197.947 103.23 197.627 102.878 197.392C102.537 197.157 102.132 197.04 101.662 197.04ZM109.485 203.024C109.485 203.301 109.395 203.536 109.213 203.728C109.032 203.909 108.803 204 108.525 204C108.248 204 108.019 203.909 107.837 203.728C107.656 203.536 107.565 203.301 107.565 203.024V196.416C107.565 196.139 107.656 195.909 107.837 195.728C108.019 195.536 108.248 195.44 108.525 195.44C108.803 195.44 109.032 195.536 109.213 195.728C109.395 195.909 109.485 196.139 109.485 196.416V203.024ZM108.509 194.4C108.147 194.4 107.891 194.341 107.741 194.224C107.592 194.107 107.517 193.899 107.517 193.6V193.296C107.517 192.987 107.597 192.779 107.757 192.672C107.928 192.555 108.184 192.496 108.525 192.496C108.899 192.496 109.16 192.555 109.309 192.672C109.459 192.789 109.533 192.997 109.533 193.296V193.6C109.533 193.909 109.453 194.123 109.293 194.24C109.133 194.347 108.872 194.4 108.509 194.4ZM116.114 195.28C116.968 195.28 117.597 195.488 118.002 195.904C118.408 196.309 118.674 196.837 118.802 197.488L118.53 197.344L118.658 197.088C118.786 196.843 118.984 196.581 119.25 196.304C119.517 196.016 119.837 195.776 120.21 195.584C120.594 195.381 121.021 195.28 121.49 195.28C122.258 195.28 122.84 195.445 123.234 195.776C123.64 196.107 123.917 196.549 124.066 197.104C124.216 197.648 124.29 198.256 124.29 198.928V203.024C124.29 203.301 124.2 203.536 124.018 203.728C123.837 203.909 123.608 204 123.33 204C123.053 204 122.824 203.909 122.642 203.728C122.461 203.536 122.37 203.301 122.37 203.024V198.928C122.37 198.576 122.328 198.261 122.242 197.984C122.157 197.696 122.002 197.467 121.778 197.296C121.554 197.125 121.234 197.04 120.818 197.04C120.413 197.04 120.066 197.125 119.778 197.296C119.49 197.467 119.272 197.696 119.122 197.984C118.984 198.261 118.914 198.576 118.914 198.928V203.024C118.914 203.301 118.824 203.536 118.642 203.728C118.461 203.909 118.232 204 117.954 204C117.677 204 117.448 203.909 117.266 203.728C117.085 203.536 116.994 203.301 116.994 203.024V198.928C116.994 198.576 116.952 198.261 116.866 197.984C116.781 197.696 116.626 197.467 116.402 197.296C116.178 197.125 115.858 197.04 115.442 197.04C115.037 197.04 114.69 197.125 114.402 197.296C114.114 197.467 113.896 197.696 113.746 197.984C113.608 198.261 113.538 198.576 113.538 198.928V203.024C113.538 203.301 113.448 203.536 113.266 203.728C113.085 203.909 112.856 204 112.578 204C112.301 204 112.072 203.909 111.89 203.728C111.709 203.536 111.618 203.301 111.618 203.024V196.416C111.618 196.139 111.709 195.909 111.89 195.728C112.072 195.536 112.301 195.44 112.578 195.44C112.856 195.44 113.085 195.536 113.266 195.728C113.448 195.909 113.538 196.139 113.538 196.416V197.104L113.298 197.056C113.394 196.875 113.528 196.683 113.698 196.48C113.869 196.267 114.077 196.069 114.322 195.888C114.568 195.707 114.84 195.563 115.138 195.456C115.437 195.339 115.762 195.28 116.114 195.28ZM128.336 203.024C128.336 203.301 128.246 203.536 128.064 203.728C127.883 203.909 127.654 204 127.376 204C127.099 204 126.87 203.909 126.688 203.728C126.507 203.536 126.416 203.301 126.416 203.024V196.416C126.416 196.139 126.507 195.909 126.688 195.728C126.87 195.536 127.099 195.44 127.376 195.44C127.654 195.44 127.883 195.536 128.064 195.728C128.246 195.909 128.336 196.139 128.336 196.416V203.024ZM127.36 194.4C126.998 194.4 126.742 194.341 126.592 194.224C126.443 194.107 126.368 193.899 126.368 193.6V193.296C126.368 192.987 126.448 192.779 126.608 192.672C126.779 192.555 127.035 192.496 127.376 192.496C127.75 192.496 128.011 192.555 128.16 192.672C128.31 192.789 128.384 192.997 128.384 193.296V193.6C128.384 193.909 128.304 194.123 128.144 194.24C127.984 194.347 127.723 194.4 127.36 194.4ZM135.926 202.24C136.182 202.24 136.395 202.325 136.566 202.496C136.736 202.656 136.822 202.864 136.822 203.12C136.822 203.365 136.736 203.573 136.566 203.744C136.395 203.915 136.182 204 135.926 204H130.774C130.507 204 130.294 203.904 130.134 203.712C129.974 203.52 129.899 203.328 129.91 203.136C129.92 202.976 129.942 202.837 129.974 202.72C130.006 202.592 130.086 202.448 130.214 202.288L134.198 197.136L134.166 197.36H130.918C130.662 197.36 130.448 197.275 130.278 197.104C130.107 196.933 130.022 196.72 130.022 196.464C130.022 196.219 130.107 196.016 130.278 195.856C130.448 195.685 130.662 195.6 130.918 195.6H135.846C136.091 195.6 136.299 195.691 136.47 195.872C136.64 196.053 136.715 196.283 136.694 196.56C136.683 196.667 136.662 196.773 136.63 196.88C136.608 196.987 136.539 197.115 136.422 197.264L132.502 202.336V202.24H135.926ZM145.388 195.28C145.665 195.28 145.894 195.371 146.076 195.552C146.257 195.733 146.348 195.968 146.348 196.256V203.024C146.348 203.301 146.257 203.536 146.076 203.728C145.894 203.909 145.665 204 145.388 204C145.11 204 144.881 203.909 144.7 203.728C144.518 203.536 144.428 203.301 144.428 203.024V202.24L144.78 202.384C144.78 202.523 144.705 202.693 144.556 202.896C144.406 203.088 144.204 203.28 143.948 203.472C143.692 203.664 143.388 203.829 143.036 203.968C142.694 204.096 142.321 204.16 141.916 204.16C141.18 204.16 140.513 203.973 139.916 203.6C139.318 203.216 138.844 202.693 138.492 202.032C138.15 201.36 137.98 200.592 137.98 199.728C137.98 198.853 138.15 198.085 138.492 197.424C138.844 196.752 139.313 196.229 139.9 195.856C140.486 195.472 141.137 195.28 141.852 195.28C142.31 195.28 142.732 195.349 143.116 195.488C143.5 195.627 143.83 195.803 144.108 196.016C144.396 196.229 144.614 196.448 144.764 196.672C144.924 196.885 145.004 197.067 145.004 197.216L144.428 197.424V196.256C144.428 195.979 144.518 195.749 144.7 195.568C144.881 195.376 145.11 195.28 145.388 195.28ZM142.156 202.4C142.625 202.4 143.036 202.283 143.388 202.048C143.74 201.813 144.012 201.493 144.204 201.088C144.406 200.683 144.508 200.229 144.508 199.728C144.508 199.216 144.406 198.757 144.204 198.352C144.012 197.947 143.74 197.627 143.388 197.392C143.036 197.157 142.625 197.04 142.156 197.04C141.697 197.04 141.292 197.157 140.94 197.392C140.588 197.627 140.31 197.947 140.108 198.352C139.916 198.757 139.82 199.216 139.82 199.728C139.82 200.229 139.916 200.683 140.108 201.088C140.31 201.493 140.588 201.813 140.94 202.048C141.292 202.283 141.697 202.4 142.156 202.4ZM148.683 195.6H152.475C152.731 195.6 152.944 195.685 153.115 195.856C153.285 196.027 153.371 196.24 153.371 196.496C153.371 196.741 153.285 196.949 153.115 197.12C152.944 197.28 152.731 197.36 152.475 197.36H148.683C148.427 197.36 148.213 197.275 148.043 197.104C147.872 196.933 147.787 196.72 147.787 196.464C147.787 196.219 147.872 196.016 148.043 195.856C148.213 195.685 148.427 195.6 148.683 195.6ZM150.395 193.6C150.672 193.6 150.896 193.696 151.067 193.888C151.248 194.069 151.339 194.299 151.339 194.576V201.696C151.339 201.845 151.365 201.968 151.419 202.064C151.483 202.16 151.563 202.229 151.659 202.272C151.765 202.315 151.877 202.336 151.995 202.336C152.123 202.336 152.24 202.315 152.347 202.272C152.453 202.219 152.576 202.192 152.715 202.192C152.864 202.192 152.997 202.261 153.115 202.4C153.243 202.539 153.307 202.731 153.307 202.976C153.307 203.275 153.141 203.52 152.811 203.712C152.491 203.904 152.144 204 151.771 204C151.547 204 151.296 203.984 151.019 203.952C150.752 203.909 150.496 203.819 150.251 203.68C150.016 203.531 149.819 203.307 149.659 203.008C149.499 202.709 149.419 202.299 149.419 201.776V194.576C149.419 194.299 149.509 194.069 149.691 193.888C149.883 193.696 150.117 193.6 150.395 193.6ZM157.101 203.024C157.101 203.301 157.011 203.536 156.829 203.728C156.648 203.909 156.419 204 156.141 204C155.864 204 155.635 203.909 155.453 203.728C155.272 203.536 155.181 203.301 155.181 203.024V196.416C155.181 196.139 155.272 195.909 155.453 195.728C155.635 195.536 155.864 195.44 156.141 195.44C156.419 195.44 156.648 195.536 156.829 195.728C157.011 195.909 157.101 196.139 157.101 196.416V203.024ZM156.125 194.4C155.763 194.4 155.507 194.341 155.357 194.224C155.208 194.107 155.133 193.899 155.133 193.6V193.296C155.133 192.987 155.213 192.779 155.373 192.672C155.544 192.555 155.8 192.496 156.141 192.496C156.515 192.496 156.776 192.555 156.925 192.672C157.075 192.789 157.149 192.997 157.149 193.296V193.6C157.149 193.909 157.069 194.123 156.909 194.24C156.749 194.347 156.488 194.4 156.125 194.4ZM167.539 199.728C167.539 200.603 167.341 201.376 166.947 202.048C166.563 202.709 166.04 203.227 165.379 203.6C164.728 203.973 163.997 204.16 163.187 204.16C162.376 204.16 161.64 203.973 160.979 203.6C160.328 203.227 159.805 202.709 159.411 202.048C159.027 201.376 158.835 200.603 158.835 199.728C158.835 198.853 159.027 198.085 159.411 197.424C159.805 196.752 160.328 196.229 160.979 195.856C161.64 195.472 162.376 195.28 163.187 195.28C163.997 195.28 164.728 195.472 165.379 195.856C166.04 196.229 166.563 196.752 166.947 197.424C167.341 198.085 167.539 198.853 167.539 199.728ZM165.619 199.728C165.619 199.184 165.507 198.715 165.283 198.32C165.069 197.915 164.776 197.6 164.403 197.376C164.04 197.152 163.635 197.04 163.187 197.04C162.739 197.04 162.328 197.152 161.955 197.376C161.592 197.6 161.299 197.915 161.075 198.32C160.861 198.715 160.755 199.184 160.755 199.728C160.755 200.261 160.861 200.731 161.075 201.136C161.299 201.531 161.592 201.84 161.955 202.064C162.328 202.288 162.739 202.4 163.187 202.4C163.635 202.4 164.04 202.288 164.403 202.064C164.776 201.84 165.069 201.531 165.283 201.136C165.507 200.731 165.619 200.261 165.619 199.728ZM173.955 195.28C174.744 195.28 175.342 195.445 175.747 195.776C176.163 196.107 176.446 196.549 176.595 197.104C176.755 197.648 176.835 198.256 176.835 198.928V203.024C176.835 203.301 176.744 203.536 176.563 203.728C176.382 203.909 176.152 204 175.875 204C175.598 204 175.368 203.909 175.187 203.728C175.006 203.536 174.915 203.301 174.915 203.024V198.928C174.915 198.576 174.867 198.261 174.771 197.984C174.686 197.696 174.526 197.467 174.291 197.296C174.056 197.125 173.72 197.04 173.283 197.04C172.856 197.04 172.494 197.125 172.195 197.296C171.907 197.467 171.683 197.696 171.523 197.984C171.374 198.261 171.299 198.576 171.299 198.928V203.024C171.299 203.301 171.208 203.536 171.027 203.728C170.846 203.909 170.616 204 170.339 204C170.062 204 169.832 203.909 169.651 203.728C169.47 203.536 169.379 203.301 169.379 203.024V196.416C169.379 196.139 169.47 195.909 169.651 195.728C169.832 195.536 170.062 195.44 170.339 195.44C170.616 195.44 170.846 195.536 171.027 195.728C171.208 195.909 171.299 196.139 171.299 196.416V197.104L171.059 197.056C171.155 196.875 171.294 196.683 171.475 196.48C171.656 196.267 171.87 196.069 172.115 195.888C172.36 195.707 172.638 195.563 172.947 195.456C173.256 195.339 173.592 195.28 173.955 195.28Z" fill="#E2E2E2"/>
<circle cx="131" cy="85" r="50" fill="#FF4646"/>
<path d="M131 90.25C133.899 90.25 136.25 87.8995 136.25 85C136.25 82.1005 133.899 79.75 131 79.75C128.101 79.75 125.75 82.1005 125.75 85C125.75 87.8995 128.101 90.25 131 90.25Z" stroke="#0B0F15" stroke-width="3" stroke-linecap="round" stroke-linejoin="round"/>
<path d="M143.95 90.25C143.717 90.7778 143.648 91.3633 143.75 91.931C143.853 92.4987 144.124 93.0226 144.527 93.435L144.633 93.54C144.958 93.8651 145.216 94.2511 145.392 94.676C145.568 95.1009 145.659 95.5563 145.659 96.0163C145.659 96.4762 145.568 96.9316 145.392 97.3565C145.216 97.7814 144.958 98.1674 144.633 98.4925C144.307 98.8179 143.921 99.0761 143.497 99.2522C143.072 99.4283 142.616 99.519 142.156 99.519C141.696 99.519 141.241 99.4283 140.816 99.2522C140.391 99.0761 140.005 98.8179 139.68 98.4925L139.575 98.3875C139.163 97.9841 138.639 97.7134 138.071 97.6105C137.503 97.5076 136.918 97.577 136.39 97.81C135.872 98.0318 135.431 98.4002 135.12 98.8697C134.809 99.3392 134.642 99.8894 134.64 100.452V100.75C134.64 101.678 134.271 102.568 133.615 103.225C132.958 103.881 132.068 104.25 131.14 104.25C130.212 104.25 129.322 103.881 128.665 103.225C128.009 102.568 127.64 101.678 127.64 100.75V100.592C127.626 100.013 127.439 99.4515 127.102 98.9802C126.765 98.509 126.294 98.15 125.75 97.95C125.222 97.717 124.637 97.6476 124.069 97.7505C123.501 97.8534 122.977 98.1241 122.565 98.5275L122.46 98.6325C122.135 98.9579 121.749 99.2161 121.324 99.3922C120.899 99.5683 120.444 99.659 119.984 99.659C119.524 99.659 119.068 99.5683 118.643 99.3922C118.219 99.2161 117.833 98.9579 117.507 98.6325C117.182 98.3074 116.924 97.9214 116.748 97.4965C116.572 97.0716 116.481 96.6162 116.481 96.1562C116.481 95.6963 116.572 95.2409 116.748 94.816C116.924 94.3911 117.182 94.0051 117.507 93.68L117.612 93.575C118.016 93.1626 118.287 92.6387 118.39 92.071C118.492 91.5033 118.423 90.9178 118.19 90.39C117.968 89.8724 117.6 89.431 117.13 89.12C116.661 88.8091 116.111 88.6422 115.548 88.64H115.25C114.322 88.64 113.432 88.2713 112.775 87.6149C112.119 86.9585 111.75 86.0683 111.75 85.14C111.75 84.2117 112.119 83.3215 112.775 82.6651C113.432 82.0087 114.322 81.64 115.25 81.64H115.407C115.987 81.6265 116.549 81.439 117.02 81.1019C117.491 80.7648 117.85 80.2938 118.05 79.75C118.283 79.2222 118.352 78.6367 118.25 78.069C118.147 77.5013 117.876 76.9774 117.472 76.565L117.368 76.46C117.042 76.1349 116.784 75.7489 116.608 75.324C116.432 74.8991 116.341 74.4437 116.341 73.9837C116.341 73.5238 116.432 73.0684 116.608 72.6435C116.784 72.2186 117.042 71.8326 117.368 71.5075C117.693 71.1821 118.079 70.9239 118.503 70.7478C118.928 70.5717 119.384 70.481 119.844 70.481C120.304 70.481 120.759 70.5717 121.184 70.7478C121.609 70.9239 121.995 71.1821 122.32 71.5075L122.425 71.6125C122.837 72.0159 123.361 72.2866 123.929 72.3895C124.497 72.4924 125.082 72.423 125.61 72.19H125.75C126.268 71.9682 126.709 71.5998 127.02 71.1303C127.331 70.6608 127.498 70.1106 127.5 69.5475V69.25C127.5 68.3217 127.869 67.4315 128.525 66.7751C129.182 66.1187 130.072 65.75 131 65.75C131.928 65.75 132.818 66.1187 133.475 66.7751C134.131 67.4315 134.5 68.3217 134.5 69.25V69.4075C134.502 69.9706 134.669 70.5208 134.98 70.9903C135.291 71.4598 135.732 71.8282 136.25 72.05C136.778 72.283 137.363 72.3524 137.931 72.2495C138.499 72.1466 139.023 71.8759 139.435 71.4725L139.54 71.3675C139.865 71.0421 140.251 70.7839 140.676 70.6078C141.101 70.4317 141.556 70.341 142.016 70.341C142.476 70.341 142.932 70.4317 143.357 70.6078C143.781 70.7839 144.167 71.0421 144.492 71.3675C144.818 71.6926 145.076 72.0786 145.252 72.5035C145.428 72.9284 145.519 73.3838 145.519 73.8438C145.519 74.3037 145.428 74.7591 145.252 75.184C145.076 75.6089 144.818 75.9949 144.492 76.32L144.387 76.425C143.984 76.8374 143.713 77.3613 143.61 77.929C143.508 78.4967 143.577 79.0822 143.81 79.61V79.75C144.032 80.2676 144.4 80.709 144.87 81.02C145.339 81.3309 145.889 81.4978 146.452 81.5H146.75C147.678 81.5 148.568 81.8687 149.225 82.5251C149.881 83.1815 150.25 84.0717 150.25 85C150.25 85.9283 149.881 86.8185 149.225 87.4749C148.568 88.1313 147.678 88.5 146.75 88.5H146.592C146.029 88.5022 145.479 88.6691 145.01 88.98C144.54 89.291 144.172 89.7324 143.95 90.25V90.25Z" stroke="#0B0F15" stroke-width="3" stroke-linecap="round" stroke-linejoin="round"/>
<rect x="0.5" y="0.5" width="261" height="268" rx="29.5" stroke="white" stroke-opacity="0.1"/>
</svg>
