<svg width="262" height="269" viewBox="0 0 262 269" fill="none" xmlns="http://www.w3.org/2000/svg">
<path d="M122.66 188.312L119.204 196.44C119.129 196.643 119.012 196.803 118.852 196.92C118.702 197.027 118.537 197.08 118.356 197.08C118.068 197.08 117.854 197 117.716 196.84C117.577 196.68 117.508 196.483 117.508 196.248C117.508 196.152 117.524 196.051 117.556 195.944L121.54 186.376C121.625 186.163 121.753 185.997 121.924 185.88C122.105 185.763 122.297 185.715 122.5 185.736C122.692 185.736 122.868 185.795 123.028 185.912C123.198 186.019 123.321 186.173 123.396 186.376L127.332 195.752C127.385 195.891 127.412 196.019 127.412 196.136C127.412 196.424 127.316 196.653 127.124 196.824C126.942 196.995 126.74 197.08 126.516 197.08C126.324 197.08 126.148 197.021 125.988 196.904C125.838 196.787 125.721 196.627 125.636 196.424L122.196 188.408L122.66 188.312ZM119.7 194.488L120.58 192.648H124.9L125.204 194.488H119.7ZM135.775 185.16C136.052 185.16 136.281 185.251 136.463 185.432C136.644 185.613 136.735 185.848 136.735 186.136V196.024C136.735 196.301 136.644 196.536 136.463 196.728C136.281 196.909 136.052 197 135.775 197C135.497 197 135.268 196.909 135.087 196.728C134.905 196.536 134.815 196.301 134.815 196.024V195.24L135.167 195.384C135.167 195.523 135.092 195.693 134.943 195.896C134.793 196.088 134.591 196.28 134.335 196.472C134.079 196.664 133.775 196.829 133.423 196.968C133.081 197.096 132.708 197.16 132.303 197.16C131.567 197.16 130.9 196.973 130.303 196.6C129.705 196.216 129.231 195.693 128.879 195.032C128.537 194.36 128.367 193.592 128.367 192.728C128.367 191.853 128.537 191.085 128.879 190.424C129.231 189.752 129.7 189.229 130.287 188.856C130.873 188.472 131.524 188.28 132.239 188.28C132.697 188.28 133.119 188.349 133.503 188.488C133.887 188.627 134.217 188.803 134.495 189.016C134.783 189.229 135.001 189.448 135.151 189.672C135.311 189.885 135.391 190.067 135.391 190.216L134.815 190.424V186.136C134.815 185.859 134.905 185.629 135.087 185.448C135.268 185.256 135.497 185.16 135.775 185.16ZM132.543 195.4C133.012 195.4 133.423 195.283 133.775 195.048C134.127 194.813 134.399 194.493 134.591 194.088C134.793 193.683 134.895 193.229 134.895 192.728C134.895 192.216 134.793 191.757 134.591 191.352C134.399 190.947 134.127 190.627 133.775 190.392C133.423 190.157 133.012 190.04 132.543 190.04C132.084 190.04 131.679 190.157 131.327 190.392C130.975 190.627 130.697 190.947 130.495 191.352C130.303 191.757 130.207 192.216 130.207 192.728C130.207 193.229 130.303 193.683 130.495 194.088C130.697 194.493 130.975 194.813 131.327 195.048C131.679 195.283 132.084 195.4 132.543 195.4ZM138.477 195.672C138.371 195.523 138.323 195.331 138.333 195.096C138.344 194.861 138.483 194.659 138.749 194.488C138.92 194.381 139.101 194.339 139.293 194.36C139.485 194.371 139.672 194.467 139.853 194.648C140.163 194.957 140.488 195.197 140.829 195.368C141.171 195.539 141.597 195.624 142.109 195.624C142.269 195.613 142.445 195.592 142.637 195.56C142.829 195.517 142.995 195.432 143.133 195.304C143.283 195.165 143.357 194.957 143.357 194.68C143.357 194.445 143.277 194.259 143.117 194.12C142.957 193.981 142.744 193.864 142.477 193.768C142.221 193.672 141.933 193.581 141.613 193.496C141.283 193.4 140.941 193.293 140.589 193.176C140.248 193.059 139.933 192.909 139.645 192.728C139.357 192.536 139.123 192.285 138.941 191.976C138.76 191.667 138.669 191.277 138.669 190.808C138.669 190.275 138.819 189.821 139.117 189.448C139.416 189.075 139.8 188.787 140.269 188.584C140.749 188.381 141.251 188.28 141.773 188.28C142.104 188.28 142.451 188.323 142.813 188.408C143.176 188.483 143.523 188.611 143.853 188.792C144.184 188.963 144.461 189.192 144.685 189.48C144.803 189.64 144.872 189.832 144.893 190.056C144.915 190.28 144.813 190.483 144.589 190.664C144.429 190.792 144.243 190.851 144.029 190.84C143.816 190.819 143.64 190.744 143.501 190.616C143.32 190.381 143.075 190.195 142.765 190.056C142.467 189.917 142.12 189.848 141.725 189.848C141.565 189.848 141.389 189.869 141.197 189.912C141.016 189.944 140.856 190.024 140.717 190.152C140.579 190.269 140.509 190.461 140.509 190.728C140.509 190.973 140.589 191.171 140.749 191.32C140.909 191.459 141.123 191.576 141.389 191.672C141.667 191.757 141.96 191.843 142.269 191.928C142.589 192.013 142.915 192.115 143.245 192.232C143.576 192.349 143.88 192.504 144.157 192.696C144.435 192.888 144.659 193.139 144.829 193.448C145 193.747 145.085 194.131 145.085 194.6C145.085 195.144 144.925 195.608 144.605 195.992C144.285 196.376 143.885 196.669 143.405 196.872C142.925 197.064 142.435 197.16 141.933 197.16C141.304 197.16 140.675 197.053 140.045 196.84C139.416 196.616 138.893 196.227 138.477 195.672Z" fill="#E2E2E2"/>
<circle cx="131" cy="102" r="50" fill="#FFB31A"/>
<path d="M145 93.25H117C115.067 93.25 113.5 94.817 113.5 96.75V116C113.5 117.933 115.067 119.5 117 119.5H145C146.933 119.5 148.5 117.933 148.5 116V96.75C148.5 94.817 146.933 93.25 145 93.25Z" stroke="#0B0F15" stroke-width="3" stroke-linecap="round" stroke-linejoin="round"/>
<path d="M139.75 84.5L131 93.25L122.25 84.5" stroke="#0B0F15" stroke-width="3" stroke-linecap="round" stroke-linejoin="round"/>
<rect x="0.5" y="0.5" width="261" height="268" rx="29.5" stroke="white" stroke-opacity="0.1"/>
</svg>
