<svg width="322" height="329" viewBox="0 0 322 329" fill="none" xmlns="http://www.w3.org/2000/svg">
<g filter="url(#filter0_d_1_1553)">
<rect x="26" y="26" width="262" height="269" rx="30" fill="#0B0F15"/>
<rect x="26.5" y="26.5" width="261" height="268" rx="29.5" stroke="white" stroke-opacity="0.1"/>
</g>
<path d="M112.475 206.16C111.728 206.16 111.056 206.069 110.459 205.888C109.861 205.696 109.291 205.365 108.747 204.896C108.608 204.779 108.501 204.645 108.427 204.496C108.352 204.347 108.315 204.197 108.315 204.048C108.315 203.803 108.4 203.589 108.571 203.408C108.752 203.216 108.976 203.12 109.243 203.12C109.445 203.12 109.627 203.184 109.787 203.312C110.192 203.643 110.592 203.893 110.987 204.064C111.392 204.235 111.888 204.32 112.475 204.32C112.869 204.32 113.232 204.261 113.563 204.144C113.893 204.016 114.16 203.851 114.363 203.648C114.565 203.435 114.667 203.195 114.667 202.928C114.667 202.608 114.571 202.336 114.379 202.112C114.187 201.888 113.893 201.701 113.499 201.552C113.104 201.392 112.603 201.269 111.995 201.184C111.419 201.099 110.912 200.971 110.475 200.8C110.037 200.619 109.669 200.395 109.371 200.128C109.083 199.851 108.864 199.531 108.715 199.168C108.565 198.795 108.491 198.379 108.491 197.92C108.491 197.227 108.667 196.635 109.019 196.144C109.381 195.653 109.867 195.28 110.475 195.024C111.083 194.768 111.755 194.64 112.491 194.64C113.184 194.64 113.824 194.747 114.411 194.96C115.008 195.163 115.493 195.424 115.867 195.744C116.176 195.989 116.331 196.272 116.331 196.592C116.331 196.827 116.24 197.04 116.059 197.232C115.877 197.424 115.664 197.52 115.419 197.52C115.259 197.52 115.115 197.472 114.987 197.376C114.816 197.227 114.587 197.088 114.299 196.96C114.011 196.821 113.707 196.709 113.387 196.624C113.067 196.528 112.768 196.48 112.491 196.48C112.032 196.48 111.643 196.539 111.323 196.656C111.013 196.773 110.779 196.933 110.619 197.136C110.459 197.339 110.379 197.573 110.379 197.84C110.379 198.16 110.469 198.427 110.651 198.64C110.843 198.843 111.115 199.008 111.467 199.136C111.819 199.253 112.24 199.36 112.731 199.456C113.371 199.573 113.931 199.712 114.411 199.872C114.901 200.032 115.307 200.24 115.627 200.496C115.947 200.741 116.187 201.056 116.347 201.44C116.507 201.813 116.587 202.272 116.587 202.816C116.587 203.509 116.395 204.107 116.011 204.608C115.627 205.109 115.12 205.493 114.491 205.76C113.872 206.027 113.2 206.16 112.475 206.16ZM126.726 201.728C126.726 202.603 126.528 203.376 126.134 204.048C125.75 204.709 125.227 205.227 124.566 205.6C123.915 205.973 123.184 206.16 122.374 206.16C121.563 206.16 120.827 205.973 120.166 205.6C119.515 205.227 118.992 204.709 118.598 204.048C118.214 203.376 118.022 202.603 118.022 201.728C118.022 200.853 118.214 200.085 118.598 199.424C118.992 198.752 119.515 198.229 120.166 197.856C120.827 197.472 121.563 197.28 122.374 197.28C123.184 197.28 123.915 197.472 124.566 197.856C125.227 198.229 125.75 198.752 126.134 199.424C126.528 200.085 126.726 200.853 126.726 201.728ZM124.806 201.728C124.806 201.184 124.694 200.715 124.47 200.32C124.256 199.915 123.963 199.6 123.59 199.376C123.227 199.152 122.822 199.04 122.374 199.04C121.926 199.04 121.515 199.152 121.142 199.376C120.779 199.6 120.486 199.915 120.262 200.32C120.048 200.715 119.942 201.184 119.942 201.728C119.942 202.261 120.048 202.731 120.262 203.136C120.486 203.531 120.779 203.84 121.142 204.064C121.515 204.288 121.926 204.4 122.374 204.4C122.822 204.4 123.227 204.288 123.59 204.064C123.963 203.84 124.256 203.531 124.47 203.136C124.694 202.731 124.806 202.261 124.806 201.728ZM132.374 197.28C132.982 197.28 133.51 197.344 133.958 197.472C134.417 197.6 134.769 197.781 135.014 198.016C135.27 198.24 135.398 198.512 135.398 198.832C135.398 199.045 135.334 199.248 135.206 199.44C135.078 199.621 134.891 199.712 134.646 199.712C134.475 199.712 134.331 199.691 134.214 199.648C134.107 199.595 134.011 199.531 133.926 199.456C133.841 199.381 133.739 199.312 133.622 199.248C133.515 199.184 133.35 199.136 133.126 199.104C132.913 199.061 132.753 199.04 132.646 199.04C132.102 199.04 131.638 199.157 131.254 199.392C130.881 199.627 130.593 199.947 130.39 200.352C130.187 200.747 130.086 201.205 130.086 201.728C130.086 202.24 130.187 202.699 130.39 203.104C130.603 203.499 130.891 203.813 131.254 204.048C131.627 204.283 132.054 204.4 132.534 204.4C132.801 204.4 133.03 204.384 133.222 204.352C133.414 204.32 133.574 204.272 133.702 204.208C133.851 204.123 133.985 204.032 134.102 203.936C134.219 203.84 134.395 203.792 134.63 203.792C134.907 203.792 135.121 203.883 135.27 204.064C135.419 204.235 135.494 204.448 135.494 204.704C135.494 204.971 135.345 205.216 135.046 205.44C134.747 205.653 134.353 205.829 133.862 205.968C133.382 206.096 132.859 206.16 132.294 206.16C131.451 206.16 130.721 205.968 130.102 205.584C129.483 205.189 129.003 204.656 128.662 203.984C128.331 203.312 128.166 202.56 128.166 201.728C128.166 200.853 128.342 200.085 128.694 199.424C129.057 198.752 129.553 198.229 130.182 197.856C130.822 197.472 131.553 197.28 132.374 197.28ZM138.846 205.024C138.846 205.301 138.756 205.536 138.574 205.728C138.393 205.909 138.164 206 137.886 206C137.609 206 137.38 205.909 137.198 205.728C137.017 205.536 136.926 205.301 136.926 205.024V198.416C136.926 198.139 137.017 197.909 137.198 197.728C137.38 197.536 137.609 197.44 137.886 197.44C138.164 197.44 138.393 197.536 138.574 197.728C138.756 197.909 138.846 198.139 138.846 198.416V205.024ZM137.87 196.4C137.508 196.4 137.252 196.341 137.102 196.224C136.953 196.107 136.878 195.899 136.878 195.6V195.296C136.878 194.987 136.958 194.779 137.118 194.672C137.289 194.555 137.545 194.496 137.886 194.496C138.26 194.496 138.521 194.555 138.67 194.672C138.82 194.789 138.894 194.997 138.894 195.296V195.6C138.894 195.909 138.814 196.123 138.654 196.24C138.494 196.347 138.233 196.4 137.87 196.4ZM147.988 197.28C148.265 197.28 148.494 197.371 148.676 197.552C148.857 197.733 148.948 197.968 148.948 198.256V205.024C148.948 205.301 148.857 205.536 148.676 205.728C148.494 205.909 148.265 206 147.988 206C147.71 206 147.481 205.909 147.3 205.728C147.118 205.536 147.028 205.301 147.028 205.024V204.24L147.38 204.384C147.38 204.523 147.305 204.693 147.156 204.896C147.006 205.088 146.804 205.28 146.548 205.472C146.292 205.664 145.988 205.829 145.636 205.968C145.294 206.096 144.921 206.16 144.516 206.16C143.78 206.16 143.113 205.973 142.516 205.6C141.918 205.216 141.444 204.693 141.092 204.032C140.75 203.36 140.58 202.592 140.58 201.728C140.58 200.853 140.75 200.085 141.092 199.424C141.444 198.752 141.913 198.229 142.5 197.856C143.086 197.472 143.737 197.28 144.452 197.28C144.91 197.28 145.332 197.349 145.716 197.488C146.1 197.627 146.43 197.803 146.708 198.016C146.996 198.229 147.214 198.448 147.364 198.672C147.524 198.885 147.604 199.067 147.604 199.216L147.028 199.424V198.256C147.028 197.979 147.118 197.749 147.3 197.568C147.481 197.376 147.71 197.28 147.988 197.28ZM144.756 204.4C145.225 204.4 145.636 204.283 145.988 204.048C146.34 203.813 146.612 203.493 146.804 203.088C147.006 202.683 147.108 202.229 147.108 201.728C147.108 201.216 147.006 200.757 146.804 200.352C146.612 199.947 146.34 199.627 145.988 199.392C145.636 199.157 145.225 199.04 144.756 199.04C144.297 199.04 143.892 199.157 143.54 199.392C143.188 199.627 142.91 199.947 142.708 200.352C142.516 200.757 142.42 201.216 142.42 201.728C142.42 202.229 142.516 202.683 142.708 203.088C142.91 203.493 143.188 203.813 143.54 204.048C143.892 204.283 144.297 204.4 144.756 204.4ZM153.267 205.024C153.267 205.301 153.171 205.536 152.979 205.728C152.797 205.909 152.568 206 152.291 206C152.024 206 151.8 205.909 151.619 205.728C151.437 205.536 151.347 205.301 151.347 205.024V195.136C151.347 194.859 151.437 194.629 151.619 194.448C151.811 194.256 152.045 194.16 152.323 194.16C152.6 194.16 152.824 194.256 152.995 194.448C153.176 194.629 153.267 194.859 153.267 195.136V205.024ZM161.471 194.784C161.621 194.784 161.775 194.827 161.935 194.912C162.106 194.987 162.234 195.088 162.319 195.216L166.207 201.2L165.407 201.168L169.391 195.216C169.594 194.928 169.855 194.784 170.175 194.784C170.431 194.784 170.661 194.875 170.863 195.056C171.066 195.237 171.167 195.472 171.167 195.76V205.024C171.167 205.301 171.077 205.536 170.895 205.728C170.714 205.909 170.474 206 170.175 206C169.877 206 169.631 205.909 169.439 205.728C169.258 205.536 169.167 205.301 169.167 205.024V197.488L169.791 197.632L166.527 202.608C166.431 202.725 166.309 202.827 166.159 202.912C166.021 202.997 165.877 203.035 165.727 203.024C165.589 203.035 165.445 202.997 165.295 202.912C165.157 202.827 165.039 202.725 164.943 202.608L161.887 197.776L162.303 196.928V205.024C162.303 205.301 162.218 205.536 162.047 205.728C161.877 205.909 161.653 206 161.375 206C161.109 206 160.89 205.909 160.719 205.728C160.549 205.536 160.463 205.301 160.463 205.024V195.76C160.463 195.493 160.559 195.264 160.751 195.072C160.954 194.88 161.194 194.784 161.471 194.784ZM177.605 206.16C176.698 206.16 175.909 205.973 175.237 205.6C174.575 205.216 174.063 204.699 173.701 204.048C173.349 203.397 173.173 202.661 173.173 201.84C173.173 200.88 173.365 200.064 173.749 199.392C174.143 198.709 174.655 198.187 175.285 197.824C175.914 197.461 176.581 197.28 177.285 197.28C177.829 197.28 178.341 197.392 178.821 197.616C179.311 197.84 179.743 198.149 180.117 198.544C180.49 198.928 180.783 199.376 180.997 199.888C181.221 200.4 181.333 200.944 181.333 201.52C181.322 201.776 181.221 201.984 181.029 202.144C180.837 202.304 180.613 202.384 180.357 202.384H174.245L173.765 200.784H179.637L179.285 201.104V200.672C179.263 200.363 179.151 200.085 178.949 199.84C178.757 199.595 178.511 199.403 178.213 199.264C177.925 199.115 177.615 199.04 177.285 199.04C176.965 199.04 176.666 199.083 176.389 199.168C176.111 199.253 175.871 199.397 175.669 199.6C175.466 199.803 175.306 200.075 175.189 200.416C175.071 200.757 175.013 201.189 175.013 201.712C175.013 202.288 175.13 202.779 175.365 203.184C175.61 203.579 175.919 203.883 176.293 204.096C176.677 204.299 177.082 204.4 177.509 204.4C177.903 204.4 178.218 204.368 178.453 204.304C178.687 204.24 178.874 204.165 179.013 204.08C179.162 203.984 179.295 203.904 179.413 203.84C179.605 203.744 179.786 203.696 179.957 203.696C180.191 203.696 180.383 203.776 180.533 203.936C180.693 204.096 180.773 204.283 180.773 204.496C180.773 204.784 180.623 205.045 180.325 205.28C180.047 205.515 179.658 205.723 179.157 205.904C178.655 206.075 178.138 206.16 177.605 206.16ZM190.178 194.16C190.456 194.16 190.685 194.251 190.866 194.432C191.048 194.613 191.138 194.848 191.138 195.136V205.024C191.138 205.301 191.048 205.536 190.866 205.728C190.685 205.909 190.456 206 190.178 206C189.901 206 189.672 205.909 189.49 205.728C189.309 205.536 189.218 205.301 189.218 205.024V204.24L189.57 204.384C189.57 204.523 189.496 204.693 189.346 204.896C189.197 205.088 188.994 205.28 188.738 205.472C188.482 205.664 188.178 205.829 187.826 205.968C187.485 206.096 187.112 206.16 186.706 206.16C185.97 206.16 185.304 205.973 184.706 205.6C184.109 205.216 183.634 204.693 183.282 204.032C182.941 203.36 182.77 202.592 182.77 201.728C182.77 200.853 182.941 200.085 183.282 199.424C183.634 198.752 184.104 198.229 184.69 197.856C185.277 197.472 185.928 197.28 186.642 197.28C187.101 197.28 187.522 197.349 187.906 197.488C188.29 197.627 188.621 197.803 188.898 198.016C189.186 198.229 189.405 198.448 189.554 198.672C189.714 198.885 189.794 199.067 189.794 199.216L189.218 199.424V195.136C189.218 194.859 189.309 194.629 189.49 194.448C189.672 194.256 189.901 194.16 190.178 194.16ZM186.946 204.4C187.416 204.4 187.826 204.283 188.178 204.048C188.53 203.813 188.802 203.493 188.994 203.088C189.197 202.683 189.298 202.229 189.298 201.728C189.298 201.216 189.197 200.757 188.994 200.352C188.802 199.947 188.53 199.627 188.178 199.392C187.826 199.157 187.416 199.04 186.946 199.04C186.488 199.04 186.082 199.157 185.73 199.392C185.378 199.627 185.101 199.947 184.898 200.352C184.706 200.757 184.61 201.216 184.61 201.728C184.61 202.229 184.706 202.683 184.898 203.088C185.101 203.493 185.378 203.813 185.73 204.048C186.082 204.283 186.488 204.4 186.946 204.4ZM195.185 205.024C195.185 205.301 195.095 205.536 194.913 205.728C194.732 205.909 194.503 206 194.225 206C193.948 206 193.719 205.909 193.537 205.728C193.356 205.536 193.265 205.301 193.265 205.024V198.416C193.265 198.139 193.356 197.909 193.537 197.728C193.719 197.536 193.948 197.44 194.225 197.44C194.503 197.44 194.732 197.536 194.913 197.728C195.095 197.909 195.185 198.139 195.185 198.416V205.024ZM194.209 196.4C193.847 196.4 193.591 196.341 193.441 196.224C193.292 196.107 193.217 195.899 193.217 195.6V195.296C193.217 194.987 193.297 194.779 193.457 194.672C193.628 194.555 193.884 194.496 194.225 194.496C194.599 194.496 194.86 194.555 195.009 194.672C195.159 194.789 195.233 194.997 195.233 195.296V195.6C195.233 195.909 195.153 196.123 194.993 196.24C194.833 196.347 194.572 196.4 194.209 196.4ZM204.326 197.28C204.604 197.28 204.833 197.371 205.014 197.552C205.196 197.733 205.286 197.968 205.286 198.256V205.024C205.286 205.301 205.196 205.536 205.014 205.728C204.833 205.909 204.604 206 204.326 206C204.049 206 203.82 205.909 203.638 205.728C203.457 205.536 203.366 205.301 203.366 205.024V204.24L203.718 204.384C203.718 204.523 203.644 204.693 203.494 204.896C203.345 205.088 203.142 205.28 202.886 205.472C202.63 205.664 202.326 205.829 201.974 205.968C201.633 206.096 201.26 206.16 200.854 206.16C200.118 206.16 199.452 205.973 198.854 205.6C198.257 205.216 197.782 204.693 197.43 204.032C197.089 203.36 196.918 202.592 196.918 201.728C196.918 200.853 197.089 200.085 197.43 199.424C197.782 198.752 198.252 198.229 198.838 197.856C199.425 197.472 200.076 197.28 200.79 197.28C201.249 197.28 201.67 197.349 202.054 197.488C202.438 197.627 202.769 197.803 203.046 198.016C203.334 198.229 203.553 198.448 203.702 198.672C203.862 198.885 203.942 199.067 203.942 199.216L203.366 199.424V198.256C203.366 197.979 203.457 197.749 203.638 197.568C203.82 197.376 204.049 197.28 204.326 197.28ZM201.094 204.4C201.564 204.4 201.974 204.283 202.326 204.048C202.678 203.813 202.95 203.493 203.142 203.088C203.345 202.683 203.446 202.229 203.446 201.728C203.446 201.216 203.345 200.757 203.142 200.352C202.95 199.947 202.678 199.627 202.326 199.392C201.974 199.157 201.564 199.04 201.094 199.04C200.636 199.04 200.23 199.157 199.878 199.392C199.526 199.627 199.249 199.947 199.046 200.352C198.854 200.757 198.758 201.216 198.758 201.728C198.758 202.229 198.854 202.683 199.046 203.088C199.249 203.493 199.526 203.813 199.878 204.048C200.23 204.283 200.636 204.4 201.094 204.4ZM107.324 218.784C107.473 218.784 107.628 218.827 107.788 218.912C107.959 218.987 108.087 219.088 108.172 219.216L112.06 225.2L111.26 225.168L115.244 219.216C115.447 218.928 115.708 218.784 116.028 218.784C116.284 218.784 116.513 218.875 116.716 219.056C116.919 219.237 117.02 219.472 117.02 219.76V229.024C117.02 229.301 116.929 229.536 116.748 229.728C116.567 229.909 116.327 230 116.028 230C115.729 230 115.484 229.909 115.292 229.728C115.111 229.536 115.02 229.301 115.02 229.024V221.488L115.644 221.632L112.38 226.608C112.284 226.725 112.161 226.827 112.012 226.912C111.873 226.997 111.729 227.035 111.58 227.024C111.441 227.035 111.297 226.997 111.148 226.912C111.009 226.827 110.892 226.725 110.796 226.608L107.74 221.776L108.156 220.928V229.024C108.156 229.301 108.071 229.536 107.9 229.728C107.729 229.909 107.505 230 107.228 230C106.961 230 106.743 229.909 106.572 229.728C106.401 229.536 106.316 229.301 106.316 229.024V219.76C106.316 219.493 106.412 219.264 106.604 219.072C106.807 218.88 107.047 218.784 107.324 218.784ZM126.433 221.28C126.711 221.28 126.94 221.371 127.121 221.552C127.303 221.733 127.393 221.968 127.393 222.256V229.024C127.393 229.301 127.303 229.536 127.121 229.728C126.94 229.909 126.711 230 126.433 230C126.156 230 125.927 229.909 125.745 229.728C125.564 229.536 125.473 229.301 125.473 229.024V228.24L125.825 228.384C125.825 228.523 125.751 228.693 125.601 228.896C125.452 229.088 125.249 229.28 124.993 229.472C124.737 229.664 124.433 229.829 124.081 229.968C123.74 230.096 123.367 230.16 122.961 230.16C122.225 230.16 121.559 229.973 120.961 229.6C120.364 229.216 119.889 228.693 119.537 228.032C119.196 227.36 119.025 226.592 119.025 225.728C119.025 224.853 119.196 224.085 119.537 223.424C119.889 222.752 120.359 222.229 120.945 221.856C121.532 221.472 122.183 221.28 122.897 221.28C123.356 221.28 123.777 221.349 124.161 221.488C124.545 221.627 124.876 221.803 125.153 222.016C125.441 222.229 125.66 222.448 125.809 222.672C125.969 222.885 126.049 223.067 126.049 223.216L125.473 223.424V222.256C125.473 221.979 125.564 221.749 125.745 221.568C125.927 221.376 126.156 221.28 126.433 221.28ZM123.201 228.4C123.671 228.4 124.081 228.283 124.433 228.048C124.785 227.813 125.057 227.493 125.249 227.088C125.452 226.683 125.553 226.229 125.553 225.728C125.553 225.216 125.452 224.757 125.249 224.352C125.057 223.947 124.785 223.627 124.433 223.392C124.081 223.157 123.671 223.04 123.201 223.04C122.743 223.04 122.337 223.157 121.985 223.392C121.633 223.627 121.356 223.947 121.153 224.352C120.961 224.757 120.865 225.216 120.865 225.728C120.865 226.229 120.961 226.683 121.153 227.088C121.356 227.493 121.633 227.813 121.985 228.048C122.337 228.283 122.743 228.4 123.201 228.4ZM134.208 221.28C134.998 221.28 135.595 221.445 136 221.776C136.416 222.107 136.699 222.549 136.848 223.104C137.008 223.648 137.088 224.256 137.088 224.928V229.024C137.088 229.301 136.998 229.536 136.816 229.728C136.635 229.909 136.406 230 136.128 230C135.851 230 135.622 229.909 135.44 229.728C135.259 229.536 135.168 229.301 135.168 229.024V224.928C135.168 224.576 135.12 224.261 135.024 223.984C134.939 223.696 134.779 223.467 134.544 223.296C134.31 223.125 133.974 223.04 133.536 223.04C133.11 223.04 132.747 223.125 132.448 223.296C132.16 223.467 131.936 223.696 131.776 223.984C131.627 224.261 131.552 224.576 131.552 224.928V229.024C131.552 229.301 131.462 229.536 131.28 229.728C131.099 229.909 130.87 230 130.592 230C130.315 230 130.086 229.909 129.904 229.728C129.723 229.536 129.632 229.301 129.632 229.024V222.416C129.632 222.139 129.723 221.909 129.904 221.728C130.086 221.536 130.315 221.44 130.592 221.44C130.87 221.44 131.099 221.536 131.28 221.728C131.462 221.909 131.552 222.139 131.552 222.416V223.104L131.312 223.056C131.408 222.875 131.547 222.683 131.728 222.48C131.91 222.267 132.123 222.069 132.368 221.888C132.614 221.707 132.891 221.563 133.2 221.456C133.51 221.339 133.846 221.28 134.208 221.28ZM146.331 221.28C146.609 221.28 146.838 221.371 147.019 221.552C147.201 221.733 147.291 221.968 147.291 222.256V229.024C147.291 229.301 147.201 229.536 147.019 229.728C146.838 229.909 146.609 230 146.331 230C146.054 230 145.825 229.909 145.643 229.728C145.462 229.536 145.371 229.301 145.371 229.024V228.24L145.723 228.384C145.723 228.523 145.649 228.693 145.499 228.896C145.35 229.088 145.147 229.28 144.891 229.472C144.635 229.664 144.331 229.829 143.979 229.968C143.638 230.096 143.265 230.16 142.859 230.16C142.123 230.16 141.457 229.973 140.859 229.6C140.262 229.216 139.787 228.693 139.435 228.032C139.094 227.36 138.923 226.592 138.923 225.728C138.923 224.853 139.094 224.085 139.435 223.424C139.787 222.752 140.257 222.229 140.843 221.856C141.43 221.472 142.081 221.28 142.795 221.28C143.254 221.28 143.675 221.349 144.059 221.488C144.443 221.627 144.774 221.803 145.051 222.016C145.339 222.229 145.558 222.448 145.707 222.672C145.867 222.885 145.947 223.067 145.947 223.216L145.371 223.424V222.256C145.371 221.979 145.462 221.749 145.643 221.568C145.825 221.376 146.054 221.28 146.331 221.28ZM143.099 228.4C143.569 228.4 143.979 228.283 144.331 228.048C144.683 227.813 144.955 227.493 145.147 227.088C145.35 226.683 145.451 226.229 145.451 225.728C145.451 225.216 145.35 224.757 145.147 224.352C144.955 223.947 144.683 223.627 144.331 223.392C143.979 223.157 143.569 223.04 143.099 223.04C142.641 223.04 142.235 223.157 141.883 223.392C141.531 223.627 141.254 223.947 141.051 224.352C140.859 224.757 140.763 225.216 140.763 225.728C140.763 226.229 140.859 226.683 141.051 227.088C141.254 227.493 141.531 227.813 141.883 228.048C142.235 228.283 142.641 228.4 143.099 228.4ZM153.082 221.28C153.53 221.28 153.941 221.349 154.314 221.488C154.688 221.627 155.008 221.803 155.274 222.016C155.552 222.229 155.765 222.448 155.914 222.672C156.074 222.885 156.154 223.067 156.154 223.216L155.738 223.424V222.256C155.738 221.979 155.829 221.749 156.01 221.568C156.192 221.376 156.421 221.28 156.698 221.28C156.976 221.28 157.205 221.371 157.386 221.552C157.568 221.733 157.658 221.968 157.658 222.256V229.376C157.658 230.304 157.456 231.045 157.05 231.6C156.656 232.165 156.133 232.571 155.482 232.816C154.832 233.072 154.133 233.2 153.386 233.2C153.173 233.2 152.896 233.173 152.554 233.12C152.213 233.067 151.888 233.003 151.578 232.928C151.269 232.853 151.034 232.784 150.874 232.72C150.554 232.581 150.33 232.405 150.202 232.192C150.085 231.989 150.064 231.771 150.138 231.536C150.234 231.227 150.389 231.013 150.602 230.896C150.816 230.789 151.04 230.779 151.274 230.864C151.381 230.896 151.557 230.96 151.802 231.056C152.048 231.152 152.314 231.237 152.602 231.312C152.901 231.397 153.162 231.44 153.386 231.44C154.186 231.44 154.778 231.28 155.162 230.96C155.546 230.64 155.738 230.197 155.738 229.632V228.24L155.93 228.384C155.93 228.523 155.856 228.693 155.706 228.896C155.568 229.088 155.37 229.28 155.114 229.472C154.869 229.664 154.576 229.829 154.234 229.968C153.893 230.096 153.53 230.16 153.146 230.16C152.389 230.16 151.706 229.973 151.098 229.6C150.49 229.216 150.01 228.693 149.658 228.032C149.306 227.36 149.13 226.592 149.13 225.728C149.13 224.853 149.306 224.085 149.658 223.424C150.01 222.752 150.485 222.229 151.082 221.856C151.68 221.472 152.346 221.28 153.082 221.28ZM153.386 223.04C152.906 223.04 152.485 223.157 152.122 223.392C151.76 223.627 151.477 223.947 151.274 224.352C151.072 224.757 150.97 225.216 150.97 225.728C150.97 226.229 151.072 226.683 151.274 227.088C151.477 227.493 151.76 227.813 152.122 228.048C152.485 228.283 152.906 228.4 153.386 228.4C153.877 228.4 154.304 228.283 154.666 228.048C155.029 227.813 155.312 227.493 155.514 227.088C155.717 226.683 155.818 226.229 155.818 225.728C155.818 225.216 155.717 224.757 155.514 224.352C155.312 223.947 155.029 223.627 154.666 223.392C154.304 223.157 153.877 223.04 153.386 223.04ZM163.613 230.16C162.706 230.16 161.917 229.973 161.245 229.6C160.584 229.216 160.072 228.699 159.709 228.048C159.357 227.397 159.181 226.661 159.181 225.84C159.181 224.88 159.373 224.064 159.757 223.392C160.152 222.709 160.664 222.187 161.293 221.824C161.922 221.461 162.589 221.28 163.293 221.28C163.837 221.28 164.349 221.392 164.829 221.616C165.32 221.84 165.752 222.149 166.125 222.544C166.498 222.928 166.792 223.376 167.005 223.888C167.229 224.4 167.341 224.944 167.341 225.52C167.33 225.776 167.229 225.984 167.037 226.144C166.845 226.304 166.621 226.384 166.365 226.384H160.253L159.773 224.784H165.645L165.293 225.104V224.672C165.272 224.363 165.16 224.085 164.957 223.84C164.765 223.595 164.52 223.403 164.221 223.264C163.933 223.115 163.624 223.04 163.293 223.04C162.973 223.04 162.674 223.083 162.397 223.168C162.12 223.253 161.88 223.397 161.677 223.6C161.474 223.803 161.314 224.075 161.197 224.416C161.08 224.757 161.021 225.189 161.021 225.712C161.021 226.288 161.138 226.779 161.373 227.184C161.618 227.579 161.928 227.883 162.301 228.096C162.685 228.299 163.09 228.4 163.517 228.4C163.912 228.4 164.226 228.368 164.461 228.304C164.696 228.24 164.882 228.165 165.021 228.08C165.17 227.984 165.304 227.904 165.421 227.84C165.613 227.744 165.794 227.696 165.965 227.696C166.2 227.696 166.392 227.776 166.541 227.936C166.701 228.096 166.781 228.283 166.781 228.496C166.781 228.784 166.632 229.045 166.333 229.28C166.056 229.515 165.666 229.723 165.165 229.904C164.664 230.075 164.146 230.16 163.613 230.16ZM173.674 221.28C174.528 221.28 175.157 221.488 175.562 221.904C175.968 222.309 176.234 222.837 176.362 223.488L176.09 223.344L176.218 223.088C176.346 222.843 176.544 222.581 176.81 222.304C177.077 222.016 177.397 221.776 177.77 221.584C178.154 221.381 178.581 221.28 179.05 221.28C179.818 221.28 180.4 221.445 180.794 221.776C181.2 222.107 181.477 222.549 181.626 223.104C181.776 223.648 181.85 224.256 181.85 224.928V229.024C181.85 229.301 181.76 229.536 181.578 229.728C181.397 229.909 181.168 230 180.89 230C180.613 230 180.384 229.909 180.202 229.728C180.021 229.536 179.93 229.301 179.93 229.024V224.928C179.93 224.576 179.888 224.261 179.802 223.984C179.717 223.696 179.562 223.467 179.338 223.296C179.114 223.125 178.794 223.04 178.378 223.04C177.973 223.04 177.626 223.125 177.338 223.296C177.05 223.467 176.832 223.696 176.682 223.984C176.544 224.261 176.474 224.576 176.474 224.928V229.024C176.474 229.301 176.384 229.536 176.202 229.728C176.021 229.909 175.792 230 175.514 230C175.237 230 175.008 229.909 174.826 229.728C174.645 229.536 174.554 229.301 174.554 229.024V224.928C174.554 224.576 174.512 224.261 174.426 223.984C174.341 223.696 174.186 223.467 173.962 223.296C173.738 223.125 173.418 223.04 173.002 223.04C172.597 223.04 172.25 223.125 171.962 223.296C171.674 223.467 171.456 223.696 171.306 223.984C171.168 224.261 171.098 224.576 171.098 224.928V229.024C171.098 229.301 171.008 229.536 170.826 229.728C170.645 229.909 170.416 230 170.138 230C169.861 230 169.632 229.909 169.45 229.728C169.269 229.536 169.178 229.301 169.178 229.024V222.416C169.178 222.139 169.269 221.909 169.45 221.728C169.632 221.536 169.861 221.44 170.138 221.44C170.416 221.44 170.645 221.536 170.826 221.728C171.008 221.909 171.098 222.139 171.098 222.416V223.104L170.858 223.056C170.954 222.875 171.088 222.683 171.258 222.48C171.429 222.267 171.637 222.069 171.882 221.888C172.128 221.707 172.4 221.563 172.698 221.456C172.997 221.339 173.322 221.28 173.674 221.28ZM188.12 230.16C187.214 230.16 186.424 229.973 185.752 229.6C185.091 229.216 184.579 228.699 184.216 228.048C183.864 227.397 183.688 226.661 183.688 225.84C183.688 224.88 183.88 224.064 184.264 223.392C184.659 222.709 185.171 222.187 185.8 221.824C186.43 221.461 187.096 221.28 187.8 221.28C188.344 221.28 188.856 221.392 189.336 221.616C189.827 221.84 190.259 222.149 190.632 222.544C191.006 222.928 191.299 223.376 191.512 223.888C191.736 224.4 191.848 224.944 191.848 225.52C191.838 225.776 191.736 225.984 191.544 226.144C191.352 226.304 191.128 226.384 190.872 226.384H184.76L184.28 224.784H190.152L189.8 225.104V224.672C189.779 224.363 189.667 224.085 189.464 223.84C189.272 223.595 189.027 223.403 188.728 223.264C188.44 223.115 188.131 223.04 187.8 223.04C187.48 223.04 187.182 223.083 186.904 223.168C186.627 223.253 186.387 223.397 186.184 223.6C185.982 223.803 185.822 224.075 185.704 224.416C185.587 224.757 185.528 225.189 185.528 225.712C185.528 226.288 185.646 226.779 185.88 227.184C186.126 227.579 186.435 227.883 186.808 228.096C187.192 228.299 187.598 228.4 188.024 228.4C188.419 228.4 188.734 228.368 188.968 228.304C189.203 228.24 189.39 228.165 189.528 228.08C189.678 227.984 189.811 227.904 189.928 227.84C190.12 227.744 190.302 227.696 190.472 227.696C190.707 227.696 190.899 227.776 191.048 227.936C191.208 228.096 191.288 228.283 191.288 228.496C191.288 228.784 191.139 229.045 190.84 229.28C190.563 229.515 190.174 229.723 189.672 229.904C189.171 230.075 188.654 230.16 188.12 230.16ZM198.262 221.28C199.051 221.28 199.649 221.445 200.054 221.776C200.47 222.107 200.753 222.549 200.902 223.104C201.062 223.648 201.142 224.256 201.142 224.928V229.024C201.142 229.301 201.051 229.536 200.87 229.728C200.689 229.909 200.459 230 200.182 230C199.905 230 199.675 229.909 199.494 229.728C199.313 229.536 199.222 229.301 199.222 229.024V224.928C199.222 224.576 199.174 224.261 199.078 223.984C198.993 223.696 198.833 223.467 198.598 223.296C198.363 223.125 198.027 223.04 197.59 223.04C197.163 223.04 196.801 223.125 196.502 223.296C196.214 223.467 195.99 223.696 195.83 223.984C195.681 224.261 195.606 224.576 195.606 224.928V229.024C195.606 229.301 195.515 229.536 195.334 229.728C195.153 229.909 194.923 230 194.646 230C194.369 230 194.139 229.909 193.958 229.728C193.777 229.536 193.686 229.301 193.686 229.024V222.416C193.686 222.139 193.777 221.909 193.958 221.728C194.139 221.536 194.369 221.44 194.646 221.44C194.923 221.44 195.153 221.536 195.334 221.728C195.515 221.909 195.606 222.139 195.606 222.416V223.104L195.366 223.056C195.462 222.875 195.601 222.683 195.782 222.48C195.963 222.267 196.177 222.069 196.422 221.888C196.667 221.707 196.945 221.563 197.254 221.456C197.563 221.339 197.899 221.28 198.262 221.28ZM203.473 221.6H207.265C207.521 221.6 207.735 221.685 207.905 221.856C208.076 222.027 208.161 222.24 208.161 222.496C208.161 222.741 208.076 222.949 207.905 223.12C207.735 223.28 207.521 223.36 207.265 223.36H203.473C203.217 223.36 203.004 223.275 202.833 223.104C202.663 222.933 202.577 222.72 202.577 222.464C202.577 222.219 202.663 222.016 202.833 221.856C203.004 221.685 203.217 221.6 203.473 221.6ZM205.185 219.6C205.463 219.6 205.687 219.696 205.857 219.888C206.039 220.069 206.129 220.299 206.129 220.576V227.696C206.129 227.845 206.156 227.968 206.209 228.064C206.273 228.16 206.353 228.229 206.449 228.272C206.556 228.315 206.668 228.336 206.785 228.336C206.913 228.336 207.031 228.315 207.137 228.272C207.244 228.219 207.367 228.192 207.505 228.192C207.655 228.192 207.788 228.261 207.905 228.4C208.033 228.539 208.097 228.731 208.097 228.976C208.097 229.275 207.932 229.52 207.601 229.712C207.281 229.904 206.935 230 206.561 230C206.337 230 206.087 229.984 205.809 229.952C205.543 229.909 205.287 229.819 205.041 229.68C204.807 229.531 204.609 229.307 204.449 229.008C204.289 228.709 204.209 228.299 204.209 227.776V220.576C204.209 220.299 204.3 220.069 204.481 219.888C204.673 219.696 204.908 219.6 205.185 219.6Z" fill="#E2E2E2"/>
<circle cx="157" cy="111" r="50" fill="#E2E2E2"/>
<path d="M171 95.25H143C141.067 95.25 139.5 96.817 139.5 98.75V116.25C139.5 118.183 141.067 119.75 143 119.75H171C172.933 119.75 174.5 118.183 174.5 116.25V98.75C174.5 96.817 172.933 95.25 171 95.25Z" stroke="#0B0F15" stroke-width="3" stroke-linecap="round" stroke-linejoin="round"/>
<path d="M150 126.75H164" stroke="#0B0F15" stroke-width="3" stroke-linecap="round" stroke-linejoin="round"/>
<path d="M157 119.75V126.75" stroke="#0B0F15" stroke-width="3" stroke-linecap="round" stroke-linejoin="round"/>
<defs>
<filter id="filter0_d_1_1553" x="0" y="0" width="322" height="329" filterUnits="userSpaceOnUse" color-interpolation-filters="sRGB">
<feFlood flood-opacity="0" result="BackgroundImageFix"/>
<feColorMatrix in="SourceAlpha" type="matrix" values="0 0 0 0 0 0 0 0 0 0 0 0 0 0 0 0 0 0 127 0" result="hardAlpha"/>
<feOffset dx="4" dy="4"/>
<feGaussianBlur stdDeviation="15"/>
<feComposite in2="hardAlpha" operator="out"/>
<feColorMatrix type="matrix" values="0 0 0 0 0 0 0 0 0 0 0 0 0 0 0 0 0 0 0.1 0"/>
<feBlend mode="normal" in2="BackgroundImageFix" result="effect1_dropShadow_1_1553"/>
<feBlend mode="normal" in="SourceGraphic" in2="effect1_dropShadow_1_1553" result="shape"/>
</filter>
</defs>
</svg>
